<svg width="69" height="43" viewBox="0 0 69 43" fill="none" xmlns="http://www.w3.org/2000/svg">
<g clip-path="url(#clip0_1_361)">
<path d="M38.2268 16.1057H40.4389L40.6329 16.2609L41.0986 16.9207L41.642 17.6581L42.1077 18.3178L42.5734 18.9387L42.9615 19.4821L43.9705 20.8792L44.4362 21.5001L44.8243 22.0434L45.3676 22.7808L45.6781 23.2077V23.2853H45.7557V16.1057H47.8902L47.929 16.1445V26.9721L47.6185 27.0109H45.7945L45.4452 26.5841L44.9407 25.8855L44.5526 25.3422L44.0481 24.6436L43.5048 23.9063L42.4957 22.5091L42.1465 22.0434L41.642 21.3449L41.2539 20.8016L40.7106 20.0642L40.4389 19.6761L40.4001 26.9721L40.1284 27.0109H38.2656L38.188 26.7393V16.1445L38.2268 16.1057Z" fill="#4567A3"></path>
<path d="M21.9273 15.9504H23.3245L24.023 16.0669L24.7992 16.2997L25.4201 16.6102L25.9634 16.9595L26.3515 17.2699L26.8949 17.8133L27.2829 18.3566L27.6322 18.9775L27.9039 19.6761L28.0591 20.2582L28.1755 21.3448V21.8882L28.0203 23.0136L27.7875 23.7898L27.4382 24.5272L27.1277 24.9929L26.7396 25.4974L26.468 25.769L26.0411 26.1183L25.4589 26.5064L24.7992 26.8169L24.023 27.0497L23.3633 27.1661L22.9752 27.205H22.2766L21.3452 27.0885L20.569 26.8945L19.9481 26.6228L19.366 26.3124L18.8227 25.8855L18.2793 25.3421L17.8912 24.8376L17.542 24.2167L17.3091 23.6346L17.1539 23.13L17.0375 22.5479L16.9598 21.6941L16.9986 20.8791L17.1151 20.1418L17.3479 19.3656L17.6972 18.6282L18.1629 17.9297L18.6286 17.4252L19.0555 17.0371L19.7153 16.6102L20.4526 16.2609L21.2676 16.0281L21.9273 15.9504ZM22.3154 17.8909L21.7721 17.9685L21.19 18.1625L20.7631 18.3954L20.2586 18.7835L19.9093 19.1716L19.5212 19.8313L19.2884 20.5299L19.2107 20.9568V22.1598L19.3272 22.742L19.56 23.3629L19.8705 23.8674L20.2974 24.3331L20.6467 24.6436L21.1124 24.9152L21.6557 25.1093L22.0826 25.1869H23.1692L23.7902 25.0317L24.4111 24.7212L24.7604 24.4495L25.1873 24.0226L25.5366 23.4793L25.7694 22.8972L25.9246 22.2374V20.9179L25.7694 20.2582L25.5754 19.7925L25.2649 19.2492L24.9156 18.8223L24.5663 18.5118L23.9454 18.1625L23.3633 17.9685L22.8588 17.8909H22.3154Z" fill="#4467A3"></path>
<path d="M8.14965 16.1057H12.341L13.0395 16.1833L13.8157 16.4162L14.3202 16.6878L14.7083 16.9983L15.0188 17.3088L15.3293 17.8521L15.4845 18.279L15.6009 18.9776V19.3268L15.4845 19.9478L15.174 20.5687L14.7471 21.0344L14.4755 21.2673V21.3449L14.8635 21.5777L15.3293 22.0046L15.6785 22.548L15.8338 22.936L15.9502 23.3629V24.372L15.795 25.0317L15.5233 25.575L15.2516 25.9243L14.9024 26.2736L14.3978 26.5841L13.8545 26.8169L13.0395 26.9721L12.535 27.0109H8.18846L8.14965 26.9721L8.11084 26.2736V16.1833L8.14965 16.1057ZM10.2453 17.8521V20.4911L10.517 20.5299L12.3798 20.4911L12.8455 20.297L13.156 20.0254L13.35 19.6373L13.3888 19.0552L13.3112 18.6671L13.1172 18.3566L12.8455 18.085L12.535 17.9297L12.2246 17.8521H10.2453ZM10.2453 22.3151V25.1093H12.2634L12.8843 24.9929L13.1948 24.8377L13.5052 24.566L13.6605 24.2943L13.7381 23.9451V23.4406L13.6217 23.0525L13.35 22.7032L12.9619 22.4703L12.6515 22.3539L12.4186 22.3151H10.2453Z" fill="#4668A4"></path>
<path d="M53.4777 16.1057H55.6898L55.845 16.3386L56.5824 18.2402L56.9705 19.2104L57.3974 20.297L58.0571 21.9658L58.4064 22.8584L58.678 23.5182L58.9109 24.1391L59.493 25.6138L59.9975 26.8945L59.8811 27.0109H57.7854L57.6302 26.7781L56.9317 24.9153L56.8152 24.6436H52.3522L51.7313 26.2736L51.4596 26.9333L51.382 27.0109H49.2087L49.1699 26.8945L49.8297 25.2257L51.1104 21.9658L51.8477 20.103L52.5463 18.3178L53.3224 16.3774L53.4389 16.1445L53.4777 16.1057ZM54.5255 18.8223L54.1762 19.7925L53.7105 20.9956L53.1672 22.4315L53.0896 22.6644L54.6419 22.7032L56.0779 22.6644L55.8062 21.8882L55.3017 20.5687L54.9136 19.5597L54.6031 18.8223H54.5255Z" fill="#4568A3"></path>
<path d="M29.8829 16.1057H31.9786L32.0174 16.1445V24.9929H36.7133L36.7909 25.0317V26.9721L36.7133 27.0109H29.9217L29.8441 26.9721V16.1445L29.8829 16.1057Z" fill="#4668A4"></path>
<path d="M6.32615 8.53784H6.75305L6.86947 8.61546V34.4232L6.83067 34.5008L6.71424 34.5396H6.36496L6.24854 34.3844V8.65427L6.32615 8.53784Z" fill="#4467A3"></path>
<path d="M1.74705 12.0308H2.17395L2.29037 12.1084V30.853L2.25156 31.0082L2.17395 31.047H1.82467L1.66943 30.8918V12.1084L1.74705 12.0308Z" fill="#4467A3"></path>
<path d="M59.8041 11.7979H60.1533L60.3474 11.8755L60.3862 11.9143V31.0469L60.3086 31.241L60.231 31.2798H59.8817L59.7653 31.1634V27.3213L59.8041 27.2825L60.1533 27.2049L60.231 27.1273L60.2698 26.9332L60.1533 26.5063L59.7653 25.4585V11.8755L59.8041 11.7979Z" fill="#5071A9"></path>
<path d="M61.5113 12.3025L61.8994 12.3801V30.6202L61.8218 30.7366H61.3949L61.2784 30.5814L61.2396 22.0047V20.2971L61.2784 12.4577L61.3561 12.3413L61.5113 12.3025Z" fill="#4567A3"></path>
<path d="M50.6457 3.84229H50.995L51.1891 3.9199L51.2279 3.99752V20.53L51.1503 21.0345L50.9174 21.6167L50.6846 22.2376H50.6069V3.88109L50.6457 3.84229Z" fill="#4E6FA8"></path>
<path d="M44.5523 3.84229H44.9792L45.0569 3.88109L45.0957 3.99752V21.8883L44.9016 21.6943L44.5523 21.1898L44.4747 21.0345V3.9199L44.5523 3.84229Z" fill="#4467A3"></path>
<path d="M49.1316 9.46924H49.5197L49.6361 9.50805L49.6749 9.58566V24.333L49.6361 24.8763L49.2092 26.0017L49.1316 26.1958L49.054 26.157V9.54686L49.1316 9.46924Z" fill="#4E6FA8"></path>
<path d="M45.9891 27.2825H46.5713L46.6101 27.3213V42.7671L46.5713 42.8836L46.222 43L46.0279 42.8447L45.9891 42.7671V27.2825Z" fill="#4467A3"></path>
<path d="M5.00579 13.6606L5.27745 13.7383L5.35507 13.8547V29.2229L5.23864 29.3393L5.16103 29.3782H4.88937L4.73413 29.2229V13.7771L4.81175 13.6995L5.00579 13.6606Z" fill="#4467A3"></path>
<path d="M46.1056 0.155273H46.5325L46.6101 0.232891V15.7175L46.5713 15.7564H46.0279L45.9891 15.7175V0.271699L46.1056 0.155273Z" fill="#4467A3"></path>
<path d="M3.29892 14.0876H3.68701L3.80343 14.2041L3.84224 14.3981V28.7185L3.72582 28.9514L3.68701 28.9902H3.37654L3.2213 28.8737L3.1825 24.9541V18.473L3.2213 14.1265L3.29892 14.0876Z" fill="#476AA4"></path>
<path d="M58.3285 7.21851H58.6389L58.833 7.29612L58.8718 7.37374V23.1301L58.7942 23.0136L58.3673 21.9658L58.2509 21.5777V7.29612L58.3285 7.21851Z" fill="#4467A3"></path>
<path d="M7.87791 8.80957L8.266 8.84838L8.38242 8.88719L8.42123 8.9648V15.7175L8.38242 15.7563L7.91672 15.8339V27.2049L8.38242 27.2825L8.42123 27.3213V34.0352L8.30481 34.2292L8.03314 34.2681L7.8391 34.1516L7.80029 34.1128V8.88719L7.87791 8.80957Z" fill="#486AA5"></path>
<path d="M0.193838 14.0876H0.504307L0.737159 14.1653L0.775968 14.2429V28.7185L0.698351 28.9514L0.581925 28.9902H0.271455L0.155029 28.8737V14.1265L0.193838 14.0876Z" fill="#5272AA"></path>
<path d="M62.8703 14.6697H63.336L63.4137 14.7085L63.4525 14.8637V28.1363L63.3749 28.3691L63.2972 28.4079H62.948L62.8315 28.2915L62.7927 25.2256V17.7356L62.8315 14.7085L62.8703 14.6697Z" fill="#4568A3"></path>
<path d="M29.2619 12.4189H29.65L29.7665 12.4578L29.8053 12.5354V15.5624L29.7276 15.8341L29.6112 15.8729V27.1662L29.7665 27.2439L29.8053 27.4767V30.5426L29.6888 30.659H29.3008L29.1843 30.5426V12.4966L29.2619 12.4189Z" fill="#496BA5"></path>
<path d="M64.5384 14.6311L64.8489 14.6699L64.9653 14.7863V28.2529L64.8101 28.4082H64.4608L64.3444 28.2529V14.7863L64.422 14.6699L64.5384 14.6311Z" fill="#4467A3"></path>
<path d="M47.9678 27.2437H48.1618V40.6326L48.123 40.7879L47.9678 40.8267H47.6961L47.5797 40.7879L47.5409 40.7103V27.2825L47.9678 27.2437Z" fill="#4467A3"></path>
<path d="M47.6185 2.25073H48.0066L48.1618 2.32835V15.795L48.0842 15.8338L47.9678 15.795L47.5409 15.7561V2.32835L47.6185 2.25073Z" fill="#4467A3"></path>
<path d="M37.0626 14.3203L37.4118 14.3979L37.4506 14.4755V28.5631L37.2954 28.7183H36.9461L36.8685 28.6795L36.8297 28.5631V27.3212L37.0626 27.166L37.1014 26.9331V24.9539L36.9849 24.7598L36.8297 24.6822L36.7909 24.6046L36.8297 14.4367L37.0626 14.3203Z" fill="#4467A3"></path>
<path d="M44.4747 25.8079L44.6688 26.0019L45.0181 26.5064L45.0957 26.7005V39.0028L45.0181 39.1969L44.9792 39.2357H44.63L44.4747 39.0804V25.8079Z" fill="#4467A3"></path>
<path d="M35.5104 11.9531L35.8597 11.9919L35.9373 12.1472V24.6436L35.8985 24.6824H35.3164V12.0307L35.5104 11.9531Z" fill="#4467A3"></path>
<path d="M53.6331 24.915H54.2152L54.254 24.9538V37.0622L54.1376 37.2174H53.7883L53.6331 37.0233V24.915Z" fill="#4467A3"></path>
<path d="M34.0351 12.3801L34.3456 12.4189L34.3844 12.5354V24.6437L34.3456 24.6825H33.7634V12.5354L33.841 12.4189L34.0351 12.3801Z" fill="#4467A3"></path>
<path d="M50.6457 27.2825H51.1891L51.2279 27.3213V38.2265L51.1891 39.1191L51.0338 39.2355H50.7234L50.6457 39.1967L50.6069 39.0803V27.3213L50.6457 27.2825Z" fill="#4F70A8"></path>
<path d="M66.0527 15.6011L66.4408 15.6399L66.5184 15.8339V27.2049L66.4408 27.3989L66.402 27.4377H65.9751L65.8975 27.3213V15.6787L66.0527 15.6011Z" fill="#4467A3"></path>
<path d="M67.4881 15.6401H67.9927L68.0315 15.7566V27.1663L67.9538 27.3992L67.915 27.438H67.4881L67.4105 27.2827V15.6789L67.4881 15.6401Z" fill="#4467A3"></path>
<path d="M56.8931 6.71387L57.2424 6.75268L57.32 6.83029V19.1714L57.2424 19.1326L56.9319 18.3177L56.6991 17.6579V6.83029L56.8931 6.71387Z" fill="#4467A3"></path>
<path d="M32.4444 12.186L32.7549 12.2248L32.8713 12.3413V24.6436L32.8325 24.6824H32.328L32.2892 16.0669L32.2504 15.834V12.3025L32.2892 12.2248L32.4444 12.186Z" fill="#4467A3"></path>
<path d="M10.8664 27.2825H11.4098L11.4486 27.3213V38.4594L11.4098 38.5758L11.3321 38.6146H11.0217L10.8276 38.4206V27.3213L10.8664 27.2825Z" fill="#4467A3"></path>
<path d="M10.9829 4.46289H11.3321L11.4486 4.57932V15.7174L11.4098 15.7562H10.8276V4.61813L10.9829 4.46289Z" fill="#4467A3"></path>
<path d="M15.5632 9.43042H15.9125L16.0289 9.50804L16.0677 9.62446V22.5866L15.9901 22.4701L15.6408 21.888L15.4468 21.6163V20.7237L15.7572 20.0252L15.8737 19.5983V18.8609L15.7961 18.3176L15.602 17.6967L15.4468 17.3474V9.50804L15.5632 9.43042Z" fill="#4769A4"></path>
<path d="M56.6991 25.1479L56.7767 25.2256L57.0484 26.0405L57.2812 26.6615L57.32 26.8555V36.1696L57.2812 36.286L57.2036 36.3248H56.8155L56.7379 36.286L56.6991 36.1696V25.1479Z" fill="#4467A3"></path>
<path d="M55.1862 24.915H55.7683L55.8071 24.9538V34.9665L55.7295 35.1217L55.5742 35.1993L55.3026 35.1605L55.1862 35.0441V24.915Z" fill="#4467A3"></path>
<path d="M52.5857 24.8765L52.7409 24.9153V35.2384L52.7021 35.3548L52.6245 35.3936H52.2364L52.12 35.2772V26.1183L52.314 25.4586L52.5469 24.9153L52.5857 24.8765Z" fill="#4467A3"></path>
<path d="M52.3528 7.64551L52.6633 7.68432L52.7409 7.76193V16.8044L52.6633 17.1924L52.2364 18.2791L52.1588 18.4731H52.12V7.72313L52.3528 7.64551Z" fill="#4467A3"></path>
<path d="M53.7495 5.86011H54.1764L54.254 5.97653V15.7175L54.2152 15.7563H53.6331V6.01534L53.7495 5.86011Z" fill="#4467A3"></path>
<path d="M27.7087 9.46924H28.1744L28.2909 9.58566V19.6759L28.2132 19.6371L27.9028 18.8221L27.6699 18.3176V9.50805L27.7087 9.46924Z" fill="#4567A3"></path>
<path d="M28.2521 23.4404H28.2909V33.3754L28.2132 33.5695L27.9804 33.6471L27.7087 33.5307L27.6699 33.4919V24.7211L28.058 23.9061L28.2521 23.4404Z" fill="#4467A3"></path>
<path d="M21.6167 6.32568H22.0048L22.16 6.44211V15.5621L21.8883 15.6398H21.5391V6.4033L21.6167 6.32568Z" fill="#4467A3"></path>
<path d="M21.5779 27.3989L22.0436 27.4377L22.16 27.5154V36.519L22.1212 36.713L22.0436 36.7518H21.7331L21.5779 36.6742L21.5391 36.5966V27.4377L21.5779 27.3989Z" fill="#4467A3"></path>
<path d="M41.4087 21.5776L41.6027 21.7717L41.9908 22.3538L42.0296 22.4314V30.9305L41.952 31.0858L41.6804 31.1246L41.4475 31.047L41.4087 30.9693V21.5776Z" fill="#4467A3"></path>
<path d="M58.2509 27.2825H58.833L58.8718 27.3213V35.5487L58.7942 35.8204L58.4061 35.8592L58.2897 35.8204L58.2509 35.7428V27.2825Z" fill="#4467A3"></path>
<path d="M16.0289 25.1479H16.0677V33.4142L15.9513 33.6082L15.9125 33.647H15.602L15.4468 33.4918V26.1958L15.6796 25.8465L15.9125 25.4584L16.0289 25.1479Z" fill="#4467A3"></path>
<path d="M55.3802 7.87817L55.7295 7.91698L55.8071 8.03341V15.7563H55.1862V7.95579L55.3802 7.87817Z" fill="#4467A3"></path>
<path d="M24.838 8.11108L25.0708 8.14989L25.226 8.30513V16.1057L25.032 16.0669L24.6051 15.8728V8.26632L24.7215 8.14989L24.838 8.11108Z" fill="#4467A3"></path>
<path d="M25.0708 26.9722H25.226V34.7727L25.0708 34.9279H24.7603L24.6051 34.7727V27.205L25.0708 26.9722Z" fill="#4467A3"></path>
<path d="M42.9991 11.6426H43.4648L43.5813 11.7978V19.8312L43.3872 19.6372L42.9603 18.9774V11.6814L42.9991 11.6426Z" fill="#4467A3"></path>
<path d="M12.3795 27.2825H13.0004V34.6561L12.9616 34.8502L12.8064 34.9278H12.5347L12.3795 34.7725L12.3407 32.9873V30.5812L12.3795 27.2825Z" fill="#476AA4"></path>
<path d="M12.457 8.14966H12.8063L12.9615 8.22728L13.0003 8.30489V15.8338L12.4182 15.795L12.3794 15.7562V8.22728L12.457 8.14966Z" fill="#4467A3"></path>
<path d="M23.1297 8.22754H23.5954L23.7119 8.38277V15.6788L23.0909 15.6012L23.0521 13.0786V11.9532L23.0909 8.26635L23.1297 8.22754Z" fill="#4668A4"></path>
<path d="M26.2734 9.43042H26.6615L26.7391 9.50804V17.1145L26.5839 17.0757L26.3122 16.8041L26.1182 16.6488V9.58565L26.2734 9.43042Z" fill="#4467A3"></path>
<path d="M26.6615 25.9243L26.7391 25.9631V33.5308L26.5839 33.6472L26.2346 33.6084L26.1182 33.4144V26.4288L26.4674 26.1184H26.5451L26.6227 25.9631L26.6615 25.9243Z" fill="#4467A3"></path>
<path d="M23.5564 27.3989H23.7116V34.5785L23.5952 34.8502L23.3624 34.889L23.1295 34.8114L23.0907 34.7338V27.4765L23.5564 27.3989Z" fill="#4467A3"></path>
<path d="M42.9603 23.7122L43.1156 23.8674L43.5425 24.4883L43.5813 24.5659V31.1634L43.5036 31.3963L43.3484 31.4739L43.1156 31.4351L42.9603 31.3187V23.7122Z" fill="#4467A3"></path>
<path d="M16.9598 23.4792L17.0375 23.5569L17.2315 24.139L17.542 24.7211L17.5808 24.8764V31.241L17.5032 31.3962L17.2315 31.4738L16.9986 31.3574L16.9598 31.2798V23.4792Z" fill="#4467A3"></path>
<path d="M17.0375 11.6426H17.4644L17.5808 11.759V18.0072L17.5032 18.3953L17.1927 19.0162L17.0763 19.2879L16.9986 19.5984H16.9598V11.759L17.0375 11.6426Z" fill="#4567A3"></path>
<path d="M7.80029 27.0886H7.87791L7.91672 27.205L8.38242 27.2827L8.42123 27.3215V34.0354L8.30481 34.2294L8.03314 34.2682L7.8391 34.1518L7.80029 34.113V27.0886Z" fill="#4467A3"></path>
<path d="M14.1253 9.39185L14.397 9.43065L14.5134 9.58589V16.4162L14.3194 16.3386L13.8925 16.1057V9.58589L14.0089 9.43065L14.1253 9.39185Z" fill="#4467A3"></path>
<path d="M14.397 26.8557H14.5134V33.4144L14.4358 33.6084L14.397 33.6472H14.0865L13.8925 33.4532V27.0886L14.2417 26.9333L14.397 26.8557Z" fill="#4467A3"></path>
<path d="M22.0436 18.2014L22.16 18.2402V24.7989L22.0824 24.8377L21.5779 24.7213L21.5391 24.6825V18.3567L22.0436 18.2014Z" fill="#4467A3"></path>
<path d="M23.0907 18.24L23.4788 18.2788L23.7116 18.3952V24.6822L23.4012 24.7987L23.0907 24.8375V18.24Z" fill="#4467A3"></path>
<path d="M9.35216 27.2825H9.89548L9.93429 27.3213V33.4142L9.85668 33.6083L9.74025 33.6471H9.46859L9.31335 33.4919V27.3213L9.35216 27.2825Z" fill="#4F70A8"></path>
<path d="M49.054 27.2825H49.6361L49.6749 27.3213V33.4919L49.6361 33.5695L49.5197 33.6083H49.1704L49.054 33.453V27.2825Z" fill="#4F70A8"></path>
<path d="M9.42978 9.43042H9.70144L9.89548 9.46923L9.93429 9.54685V15.7174L9.89548 15.7562H9.35216L9.31335 15.7174V9.50804L9.42978 9.43042Z" fill="#4F70A8"></path>
<path d="M18.4729 25.9243L18.6669 26.0407V26.1184L18.8222 26.196L19.055 26.3512L19.0938 26.4288V31.7456L19.0162 32.0173H18.6669L18.4729 31.8232V25.9243Z" fill="#4E6FA8"></path>
<path d="M18.6281 11.0608H19.0162L19.0938 11.1384V16.5716L19.055 16.688L18.8222 16.8433L18.5117 17.0761L18.4729 17.0373V11.1772L18.6281 11.0608Z" fill="#4F70A8"></path>
<path d="M20.026 26.9722L20.2589 27.011L20.6081 27.1662L20.6469 27.205V32.1337L20.5693 32.3666L20.5305 32.4054H20.1812L20.0648 32.3666L20.026 32.289V26.9722Z" fill="#4F70A8"></path>
<path d="M41.6804 11.9531L41.9908 11.9919L42.0296 12.0696V17.6968L41.8356 17.5028L41.4475 16.9206L41.4087 16.843V12.0696L41.4863 11.9919L41.6804 11.9531Z" fill="#4567A3"></path>
<path d="M20.1036 10.6726H20.5305L20.6081 10.7114L20.6469 10.8278V15.8342L20.4529 15.9506L20.1812 16.067H20.026V10.7114L20.1036 10.6726Z" fill="#5070A8"></path>
<path d="M30.7761 27.2825H31.3194L31.3582 27.3213V31.629L31.3194 31.9007L31.1642 32.0171H30.8537L30.7373 31.9007V27.3213L30.7761 27.2825Z" fill="#4F70A8"></path>
<path d="M30.8149 11.0608H31.1642L31.3194 11.1384L31.3582 11.2936V15.7178L31.2806 15.7566H30.7761L30.7373 15.7178V11.1384L30.8149 11.0608Z" fill="#4F70A8"></path>
<path d="M20.5693 18.8997L20.6469 18.9385V24.1H20.5305L20.22 23.7507L20.026 23.4403V19.637L20.2977 19.2101L20.5693 18.8997Z" fill="#5272AA"></path>
<path d="M24.6051 18.9387L24.838 19.1328L25.1484 19.5597L25.226 19.7925V23.2853L25.032 23.6734L24.7215 24.0615L24.6051 24.1391V18.9387Z" fill="#4568A3"></path>
<path d="M35.3164 27.2825H35.8985L35.9373 27.3213V30.9305L35.7821 31.0857L35.5493 31.1245L35.3552 31.0469L35.3164 30.9693V27.2825Z" fill="#4467A3"></path>
<path d="M32.2504 27.2825H32.8325L32.8713 27.3213V30.62L32.8325 30.8141L32.7549 30.8529H32.4056L32.2504 30.7364V27.2825Z" fill="#4467A3"></path>
<path d="M33.7634 27.2825H34.3456L34.3844 27.3213V30.5424L34.2679 30.6588L33.9963 30.6976L33.8022 30.5812L33.7634 30.4648V27.2825Z" fill="#4467A3"></path>
<path d="M38.3425 27.2825H38.9247L38.9635 27.3213V30.2707L38.8859 30.3484H38.459L38.3425 30.1543V27.2825Z" fill="#5070A9"></path>
<path d="M38.4201 12.7292H38.8859L38.9635 12.8069V15.7175L38.9247 15.7563H38.3813L38.3425 15.7175V12.9233L38.4201 12.7292Z" fill="#4F70A8"></path>
<path d="M10.8276 22.5864H11.4098L11.4486 22.6252V24.7209L11.4098 24.7597H10.8276V22.5864Z" fill="#4467A3"></path>
<path d="M10.8276 18.1235H11.4486V20.1416L11.4098 20.1804H10.8664L10.8276 20.1416V18.1235Z" fill="#4769A4"></path>
<path d="M12.3794 22.6255L12.6899 22.6643L12.9615 22.7807L13.0003 22.8583V24.5271L12.8451 24.6435L12.5734 24.7212H12.3794V22.6255Z" fill="#4568A3"></path>
<path d="M39.9344 27.2825H40.4778L40.5166 27.3213V28.796L40.4778 28.9512L40.4001 28.9901H40.0121L39.8956 28.8736V27.3213L39.9344 27.2825Z" fill="#4F70A8"></path>
<path d="M39.9732 14.0876H40.4001L40.5166 14.2041V15.7176L40.4778 15.7564H39.9344L39.8956 15.7176V14.1653L39.9732 14.0876Z" fill="#4F70A8"></path>
<path d="M12.3794 18.2014L12.6511 18.3178L12.8839 18.5119L13.0003 18.7835V19.5209L12.8839 19.7926L12.5346 20.103H12.3794V18.2014Z" fill="#4568A3"></path>
<path d="M54.2152 20.4912H54.254V22.3152L54.2152 22.354H53.7107L53.6331 22.3152L53.6719 22.0047L53.9435 21.2286L54.1764 20.6464L54.2152 20.4912Z" fill="#4B6DA6"></path>
<path d="M55.1862 21.1897L55.2638 21.3061L55.6131 22.2375V22.3151L55.5354 22.354H55.1862V21.1897Z" fill="#5575AB"></path>
</g>
<defs>
<clipPath id="clip0_1_361">
<rect width="68.148" height="43" fill="white"></rect>
</clipPath>
</defs>
</svg>