<svg width="96" height="24" viewBox="0 0 96 24" fill="none" xmlns="http://www.w3.org/2000/svg">
<g clip-path="url(#clip0_1_498)">
<path d="M36.396 18.4891H39.662V6.49463H36.396V18.4891Z" fill="#F44322"></path>
<path d="M51.1016 7.64535C51.8509 8.53326 52.218 9.80495 52.218 11.4454V18.5488H48.8919V11.4529C48.8919 9.83506 48.1204 9.02988 46.5848 9.02988C45.9932 9.02988 45.4537 9.26316 44.9741 9.73723C44.495 10.2113 44.27 11.0315 44.3 12.1978V18.5563H41.0566V6.53166H44.3V7.60018C44.6896 7.20889 45.1839 6.89288 45.7834 6.6596C46.375 6.42632 46.9519 6.31348 47.4988 6.31348C49.1543 6.31348 50.3527 6.75743 51.1016 7.64535Z" fill="#F44322"></path>
<path d="M57.6087 14.3215C57.6087 14.8332 57.6986 15.2545 57.871 15.6007C58.0431 15.9393 58.4475 16.1124 59.0917 16.1124C59.384 16.1124 59.6612 16.0973 59.9157 16.0672V18.8213C59.3914 18.8815 58.9044 18.9116 58.4553 18.9116C57.5261 18.9116 56.7772 18.8364 56.2004 18.6783C55.6313 18.5278 55.1817 18.2343 54.8594 17.7904C54.5375 17.3539 54.3803 16.7294 54.3803 15.9092V9.24224H52.9194V6.3828H54.3803V3.17725H57.6013V6.39034H59.9909V9.24975H57.6013V14.3215H57.6087Z" fill="#F44322"></path>
<path d="M69.1178 10.1217C68.5257 9.48965 67.7243 9.17359 66.7204 9.17359C65.7018 9.17359 64.9003 9.48965 64.3161 10.1217C63.7318 10.7538 63.4321 11.574 63.4321 12.5823C63.4321 13.5605 63.7318 14.3657 64.3386 15.0053C64.9377 15.6449 65.7317 15.9685 66.7204 15.9685C67.7395 15.9685 68.5409 15.6675 69.1252 15.0655C69.7094 14.4635 70.0092 13.6358 70.0092 12.5823C70.0092 11.574 69.7168 10.7538 69.1178 10.1217ZM69.8815 17.3907C69.6043 17.7669 69.1326 18.1055 68.4584 18.4065C67.7842 18.7075 67.0501 18.858 66.2487 18.858C65.0128 18.858 63.949 18.5796 63.0424 18.0303C62.1363 17.4734 61.4395 16.7209 60.9678 15.7653C60.4882 14.8097 60.2484 13.7486 60.2484 12.5823C60.2484 11.416 60.4882 10.355 60.9678 9.39932C61.4469 8.44369 62.1363 7.69122 63.0424 7.13438C63.949 6.57754 65.0202 6.30664 66.2487 6.30664C67.0727 6.30664 67.8068 6.44964 68.4358 6.73554C69.0652 7.02149 69.5522 7.38271 69.8815 7.81912V6.57003H73.1029V18.5871H69.8815V17.3907Z" fill="#F44322"></path>
<path d="M82.892 10.1217C82.2999 9.48965 81.4985 9.17359 80.4946 9.17359C79.476 9.17359 78.6745 9.48965 78.0903 10.1217C77.506 10.7538 77.2063 11.574 77.2063 12.5823C77.2063 13.5605 77.506 14.3657 78.1129 15.0053C78.7119 15.6449 79.5059 15.9685 80.4946 15.9685C81.5137 15.9685 82.3073 15.6675 82.8994 15.0655C83.4836 14.4635 83.7834 13.6358 83.7834 12.5823C83.7834 11.574 83.4836 10.7538 82.892 10.1217ZM83.6557 17.3907C83.3785 17.7669 82.9068 18.1055 82.2326 18.4065C81.5584 18.7075 80.8243 18.858 80.0229 18.858C78.787 18.858 77.7158 18.5796 76.8166 18.0303C75.9105 17.4734 75.2211 16.7209 74.742 15.7653C74.2624 14.8097 74.0226 13.7486 74.0226 12.5823C74.0226 11.416 74.2624 10.355 74.742 9.39932C75.2211 8.44369 75.9105 7.69122 76.8166 7.13438C77.7232 6.57754 78.7944 6.30664 80.0229 6.30664C80.8469 6.30664 81.581 6.44964 82.21 6.73554C82.8394 7.02149 83.3264 7.38271 83.6557 7.81912V6.57003H86.8766V18.5871H83.6557V17.3907Z" fill="#F44322"></path>
<path d="M39.2671 4.75459C38.9226 5.10071 38.4956 5.26627 38.0012 5.26627C37.4918 5.26627 37.0648 5.09321 36.7053 4.75459C36.3458 4.40846 36.1734 3.99459 36.1734 3.49795C36.1734 3.01637 36.3532 2.6025 36.7053 2.26389C37.0574 1.91774 37.4918 1.7522 38.0012 1.7522C38.4956 1.7522 38.9151 1.92527 39.2671 2.26389C39.6117 2.61002 39.7915 3.01637 39.7915 3.49795C39.7915 3.99459 39.6192 4.41597 39.2671 4.75459Z" fill="#2A7CB7"></path>
<path d="M31.2196 7.51744C30.8451 6.8402 30.3282 6.32097 29.6691 5.9673C29.0099 5.61367 28.2458 5.43306 27.3694 5.43306C26.3956 5.43306 25.5416 5.65128 24.7851 6.08019C24.036 6.50909 23.4442 7.13366 23.0248 7.93128C22.6053 8.73642 22.388 9.66199 22.388 10.7079C22.388 11.7915 22.6053 12.7321 23.0323 13.5297C23.4592 14.3349 24.0585 14.9519 24.83 15.3808C25.5941 15.8097 26.4855 16.028 27.5042 16.028C28.7551 16.028 29.7814 15.6969 30.5754 15.0422C31.3769 14.3875 31.8938 13.4695 32.1485 12.2957H26.5155V9.82H35.3994V11.4905C35.3994 13.0181 34.9276 14.5155 34.0137 15.742C34.0062 15.7495 33.9987 15.7646 33.9912 15.7721C33.2721 16.7278 32.3433 17.4953 31.2122 18.0747C30.0811 18.6541 28.8076 18.94 27.3993 18.94C25.8188 18.94 24.3881 18.5864 23.1147 17.8866C21.8413 17.1868 20.8375 16.2085 20.1109 14.9594C19.3843 13.7103 19.0172 12.2882 19.0172 10.7004C19.0172 9.1127 19.3843 7.6905 20.1109 6.42631C20.8375 5.16967 21.8413 4.19147 23.1147 3.48414C24.3881 2.78433 25.8113 2.43066 27.3769 2.43066C29.2196 2.43066 30.8301 2.87463 32.1859 3.76255C33.0099 4.29681 33.6766 4.9665 34.1935 5.76413C34.1935 5.79424 31.2196 7.51744 31.2196 7.51744Z" fill="#F44322"></path>
<path d="M14.9665 7.52411C14.9665 3.37042 11.6181 0.00683594 7.48327 0.00683594C3.34836 0.00683594 0 3.37042 0 7.52411C0 9.7966 1.00376 11.8358 2.5918 13.2128C2.5918 13.2128 2.5918 13.2128 2.58431 13.2204C3.53563 14.0406 4.6967 14.635 5.97011 14.8909C5.97763 14.8909 5.9851 14.8909 5.99257 14.8984C6.03753 14.9059 6.08249 14.9134 6.12741 14.921C6.15738 14.9285 6.18735 14.9285 6.2248 14.936C6.2473 14.936 6.26224 14.9436 6.28474 14.9436C6.32966 14.9511 6.37462 14.9586 6.41958 14.9661H6.42705C6.59933 14.9887 6.77165 15.0113 6.9514 15.0188C6.9514 15.0188 7.15365 15.0414 7.25851 15.0338C7.33344 15.0338 7.40833 15.0338 7.48327 15.0338C7.57314 15.0338 7.65554 15.0338 7.74542 15.0263C8.9889 15.1467 9.96267 16.2002 9.96267 17.4794C9.96267 18.8414 8.86154 19.9475 7.50572 19.9475C6.14991 19.9475 5.04877 18.8414 5.04877 17.4794C5.04877 16.7645 5.35589 16.1174 5.83528 15.6735C4.4345 15.3875 3.16858 14.7479 2.11988 13.8524C1.42324 14.8909 1.01874 16.14 1.01874 17.4869C1.01874 21.0838 3.92515 23.9959 7.49825 23.9959C11.0713 23.9959 13.9777 21.0838 13.9777 17.4869C13.9777 15.8465 13.371 14.3491 12.3747 13.2053C13.9627 11.8283 14.9665 9.7966 14.9665 7.52411Z" fill="#F44322"></path>
<path d="M13.6784 1.99407C14.5548 1.96397 15.259 0.887926 15.259 0H11.0566C12.0604 0.489111 12.9518 1.16634 13.6784 1.99407Z" fill="#F44322"></path>
<path d="M92.1159 3.05444C91.4235 3.05444 90.7467 3.26072 90.1707 3.64718C89.5952 4.03364 89.1464 4.58294 88.8815 5.22561C88.616 5.86825 88.547 6.57542 88.6821 7.25767C88.8172 7.93993 89.1508 8.56663 89.6403 9.0585C90.1299 9.55037 90.7537 9.88532 91.4331 10.021C92.112 10.1567 92.8162 10.0871 93.4556 9.82092C94.0954 9.55469 94.6423 9.10393 95.0272 8.52553C95.4116 7.94713 95.6171 7.26714 95.6171 6.57153C95.6162 5.63907 95.247 4.74509 94.5906 4.08572C93.9343 3.42636 93.0442 3.05548 92.1159 3.05444ZM92.1159 9.59785C91.5199 9.59785 90.9374 9.42038 90.4422 9.08782C89.9466 8.75532 89.5604 8.28265 89.3328 7.72964C89.1047 7.17668 89.0448 6.56817 89.1612 5.98113C89.2776 5.39409 89.5643 4.85484 89.9857 4.43161C90.407 4.00835 90.9439 3.72012 91.5282 3.60335C92.1124 3.48658 92.7184 3.54651 93.2688 3.77556C93.8192 4.00462 94.2896 4.39251 94.621 4.89018C94.952 5.38785 95.1284 5.97297 95.1284 6.57153C95.1275 7.37392 94.81 8.14314 94.2453 8.7105C93.6806 9.27786 92.9148 9.59702 92.1159 9.59785ZM93.3374 5.91721C93.337 5.6786 93.2427 5.44986 93.0746 5.28116C92.9069 5.11251 92.6789 5.01764 92.4417 5.01747H91.139C91.0743 5.01747 91.0121 5.0433 90.9661 5.08934C90.9205 5.13537 90.8944 5.19777 90.8944 5.26284V7.88023C90.8944 7.94529 90.9205 8.00769 90.9661 8.05373C91.0121 8.09972 91.0743 8.1256 91.139 8.1256C91.2037 8.1256 91.2658 8.09972 91.3114 8.05373C91.3575 8.00769 91.3831 7.94529 91.3831 7.88023V6.8169H92.2905L92.8744 7.9898C92.8948 8.03056 92.9261 8.06486 92.9647 8.08881C93.0034 8.11277 93.0477 8.12551 93.0929 8.1256C93.1307 8.12564 93.168 8.11679 93.2019 8.09977C93.2597 8.07066 93.304 8.01969 93.3244 7.95795C93.3448 7.89625 93.34 7.82883 93.3114 7.77062L92.8001 6.74102C92.9595 6.67098 93.0955 6.55578 93.1906 6.40951C93.2862 6.2632 93.337 6.0921 93.3374 5.91721ZM92.4417 6.32617H91.3831V5.50825H92.4417C92.5494 5.50825 92.6533 5.55132 92.7293 5.62803C92.8057 5.7047 92.8487 5.80873 92.8487 5.91721C92.8487 6.02564 92.8057 6.12967 92.7293 6.20638C92.6533 6.28305 92.5494 6.32617 92.4417 6.32617Z" fill="#F44322"></path>
</g>
<defs>
<clipPath id="clip0_1_498">
<rect width="96" height="24" fill="white"></rect>
</clipPath>
</defs>
</svg>