<svg width="74" height="24" viewBox="0 0 74 24" fill="none" xmlns="http://www.w3.org/2000/svg">
<path d="M2.94833 3.81844C2.94833 1.25678 4.90583 0.000108735 7.70917 0.000108735H11.165V1.74011H9.23167V21.0251H11.165V22.7651H7.70917C4.90583 22.7651 2.94833 21.4843 2.94833 18.9226V14.5243C2.94833 12.8809 1.90917 12.2526 4.63391e-07 12.2526V10.4884C1.90917 10.4401 2.94833 9.88428 2.94833 8.24094V3.81844ZM5.05083 18.7776C5.05083 20.2518 5.89667 20.9284 7.395 21.0251V1.74011C5.89667 1.83678 5.05083 2.53761 5.05083 4.01178V8.33761C5.05083 9.98094 4.18083 10.9718 2.41667 11.2859V11.4309C4.205 11.7451 5.05083 12.7359 5.05083 14.3793V18.7776ZM13.7136 23.7801V4.44678H15.5745V5.77594H15.9128C16.1545 5.26844 16.4324 4.88983 16.7466 4.64011C17.0607 4.39039 17.5118 4.26553 18.0999 4.26553C18.8974 4.26553 19.4935 4.49914 19.8882 4.96636C20.291 5.43358 20.5085 6.20691 20.5407 7.28636C20.5568 7.81803 20.5689 8.45844 20.577 9.20761C20.5931 9.94872 20.6011 10.7341 20.6011 11.5639C20.6011 12.3855 20.5931 13.1911 20.577 13.9805C20.5689 14.77 20.5568 15.4748 20.5407 16.0951C20.5085 17.1665 20.2789 17.9398 19.852 18.4151C19.425 18.8904 18.8128 19.128 18.0153 19.128C17.5239 19.128 17.1171 19.0112 16.7949 18.7776C16.4727 18.5359 16.1786 18.1493 15.9128 17.6176H15.5745V23.7801H13.7136ZM17.3628 17.6901C17.7898 17.6901 18.112 17.5773 18.3295 17.3518C18.555 17.1182 18.6759 16.7436 18.692 16.228C18.7161 15.3983 18.7323 14.5887 18.7403 13.7993C18.7564 13.0098 18.7604 12.2405 18.7524 11.4914C18.7524 10.7341 18.7443 9.99705 18.7282 9.28011C18.7202 8.55511 18.7081 7.84622 18.692 7.15344C18.6759 6.63789 18.5752 6.26733 18.3899 6.04178C18.2046 5.80817 17.8985 5.69136 17.4716 5.69136C17.0285 5.69136 16.6378 5.80817 16.2995 6.04178C15.9692 6.26733 15.7275 6.6258 15.5745 7.11719V16.2764C15.7436 16.7839 15.9652 17.1464 16.2391 17.3639C16.521 17.5814 16.8956 17.6901 17.3628 17.6901ZM25.5519 19.1039C24.7302 19.1039 24.1261 18.8702 23.7394 18.403C23.3527 17.9358 23.1191 17.2269 23.0386 16.2764C23.0305 16.075 23.0225 15.8696 23.0144 15.6601C23.0144 15.4507 23.0184 15.2533 23.0265 15.068C23.0587 14.488 23.1594 13.9725 23.3286 13.5214C23.4977 13.0622 23.7636 12.6433 24.1261 12.2647C24.4886 11.8861 24.988 11.5276 25.6244 11.1893C25.9789 10.9959 26.3414 10.8107 26.7119 10.6334C27.0905 10.4562 27.4732 10.2911 27.8598 10.138V7.21386C27.8598 6.6983 27.7591 6.32372 27.5577 6.09011C27.3644 5.84844 27.01 5.72761 26.4944 5.72761C26.0433 5.72761 25.709 5.83233 25.4915 6.04178C25.274 6.24316 25.1532 6.61775 25.129 7.16553C25.1209 7.34275 25.1129 7.57233 25.1048 7.85428C25.1048 8.12816 25.1048 8.41011 25.1048 8.70011C25.1129 8.99011 25.1209 9.24386 25.129 9.46136H23.3286C23.3205 9.17942 23.3125 8.83705 23.3044 8.43428C23.2964 8.02344 23.2964 7.65692 23.3044 7.33469C23.3286 6.61775 23.4494 6.03372 23.6669 5.58261C23.8925 5.1315 24.2389 4.80122 24.7061 4.59178C25.1733 4.38233 25.7895 4.27761 26.5548 4.27761C27.3443 4.27761 27.9686 4.39039 28.4277 4.61594C28.8869 4.8415 29.2132 5.19997 29.4065 5.69136C29.5998 6.17469 29.6965 6.80705 29.6965 7.58844V18.9468H27.8477V17.6055H27.5457C27.3604 18.0889 27.1147 18.4594 26.8086 18.7172C26.5105 18.975 26.0916 19.1039 25.5519 19.1039ZM26.2044 17.6901C26.5991 17.6901 26.9334 17.5773 27.2073 17.3518C27.4812 17.1182 27.6947 16.7839 27.8477 16.3489V11.588C27.5739 11.6927 27.2879 11.8176 26.9898 11.9626C26.6998 12.1076 26.3857 12.309 26.0473 12.5668C25.5882 12.889 25.282 13.2555 25.129 13.6664C24.9759 14.0691 24.8873 14.5364 24.8632 15.068C24.8551 15.213 24.8511 15.3822 24.8511 15.5755C24.8591 15.7608 24.8672 15.9501 24.8752 16.1434C24.9155 16.6429 25.0484 17.0255 25.274 17.2914C25.5076 17.5572 25.8177 17.6901 26.2044 17.6901ZM32.6873 18.9468V4.44678H34.5481V5.87261H34.9227C35.0516 5.32483 35.2651 4.94219 35.5631 4.72469C35.8612 4.50719 36.264 4.39844 36.7715 4.39844C36.9165 4.39844 37.0615 4.40247 37.2065 4.41053C37.3515 4.41858 37.4723 4.42664 37.569 4.43469V5.90886H36.7956C36.0868 5.90886 35.5631 6.03775 35.2248 6.29553C34.8945 6.54525 34.669 6.944 34.5481 7.49178V18.9468H32.6873ZM41.1743 19.1039C40.3527 19.1039 39.7485 18.8702 39.3618 18.403C38.9752 17.9358 38.7416 17.2269 38.661 16.2764C38.6529 16.075 38.6449 15.8696 38.6368 15.6601C38.6368 15.4507 38.6409 15.2533 38.6489 15.068C38.6811 14.488 38.7818 13.9725 38.951 13.5214C39.1202 13.0622 39.386 12.6433 39.7485 12.2647C40.111 11.8861 40.6105 11.5276 41.2468 11.1893C41.6013 10.9959 41.9638 10.8107 42.3343 10.6334C42.713 10.4562 43.0956 10.2911 43.4823 10.138V7.21386C43.4823 6.6983 43.3816 6.32372 43.1802 6.09011C42.9868 5.84844 42.6324 5.72761 42.1168 5.72761C41.6657 5.72761 41.3314 5.83233 41.1139 6.04178C40.8964 6.24316 40.7756 6.61775 40.7514 7.16553C40.7434 7.34275 40.7353 7.57233 40.7273 7.85428C40.7273 8.12816 40.7273 8.41011 40.7273 8.70011C40.7353 8.99011 40.7434 9.24386 40.7514 9.46136H38.951C38.9429 9.17942 38.9349 8.83705 38.9268 8.43428C38.9188 8.02344 38.9188 7.65692 38.9268 7.33469C38.951 6.61775 39.0718 6.03372 39.2893 5.58261C39.5149 5.1315 39.8613 4.80122 40.3285 4.59178C40.7957 4.38233 41.412 4.27761 42.1773 4.27761C42.9667 4.27761 43.591 4.39039 44.0502 4.61594C44.5093 4.8415 44.8356 5.19997 45.0289 5.69136C45.2223 6.17469 45.3189 6.80705 45.3189 7.58844V18.9468H43.4702V17.6055H43.1681C42.9828 18.0889 42.7371 18.4594 42.431 18.7172C42.133 18.975 41.7141 19.1039 41.1743 19.1039ZM41.8268 17.6901C42.2216 17.6901 42.5559 17.5773 42.8298 17.3518C43.1036 17.1182 43.3171 16.7839 43.4702 16.3489V11.588C43.1963 11.6927 42.9103 11.8176 42.6123 11.9626C42.3223 12.1076 42.0081 12.309 41.6698 12.5668C41.2106 12.889 40.9045 13.2555 40.7514 13.6664C40.5984 14.0691 40.5098 14.5364 40.4856 15.068C40.4775 15.213 40.4735 15.3822 40.4735 15.5755C40.4816 15.7608 40.4896 15.9501 40.4977 16.1434C40.538 16.6429 40.6709 17.0255 40.8964 17.2914C41.13 17.5572 41.4402 17.6901 41.8268 17.6901ZM48.3097 18.9468V4.44678H50.1706V5.77594H50.521C50.7788 5.26844 51.0647 4.88983 51.3789 4.64011C51.7011 4.39039 52.1603 4.26553 52.7564 4.26553C53.3445 4.26553 53.8238 4.39039 54.1943 4.64011C54.5649 4.88983 54.8267 5.30067 54.9797 5.87261H55.3181C55.5758 5.36511 55.886 4.97039 56.2485 4.68844C56.611 4.4065 57.0903 4.26553 57.6864 4.26553C58.4758 4.26553 59.072 4.49914 59.4747 4.96636C59.8775 5.43358 60.0829 6.20691 60.091 7.28636V18.9468H58.2302V7.15344C58.2221 6.63789 58.1214 6.26733 57.9281 6.04178C57.7347 5.80817 57.4246 5.69136 56.9977 5.69136C56.5707 5.69136 56.1961 5.81622 55.8739 6.06594C55.5597 6.31566 55.3221 6.67414 55.161 7.14136V18.9468H53.3002V7.15344C53.2921 6.63789 53.1914 6.26733 52.9981 6.04178C52.8047 5.80817 52.4946 5.69136 52.0677 5.69136C51.6246 5.69136 51.2339 5.80817 50.8956 6.04178C50.5653 6.26733 50.3236 6.6258 50.1706 7.11719V18.9468H48.3097ZM62.5637 1.74011V0.000108735H66.0196C68.8229 0.000108735 70.7804 1.25678 70.7804 3.81844V8.24094C70.7804 9.88428 71.8196 10.4401 73.7287 10.4884V12.2526C71.8196 12.2526 70.7804 12.8809 70.7804 14.5243V18.9226C70.7804 21.4843 68.8229 22.7651 66.0196 22.7651H62.5637V21.0251H64.4971V1.74011H62.5637ZM68.6779 4.01178C68.6779 2.53761 67.8321 1.83678 66.3337 1.74011V21.0251C67.8321 20.9284 68.6779 20.2518 68.6779 18.7776V14.3793C68.6779 12.7359 69.5237 11.7451 71.3121 11.4309V11.2859C69.5479 10.9718 68.6779 9.98094 68.6779 8.33761V4.01178Z" fill="black"></path>
</svg>