<svg width="32" height="32" viewBox="0 0 32 32" fill="none" xmlns="http://www.w3.org/2000/svg">
<g clip-path="url(#clip0_26_36)">
<path d="M30.4701 7.60999H28.9501V10.66H25.9001V12.19H22.8501V13.71H25.9001V18.28H24.3801V19.81H25.9001V22.85H27.4201V12.19H28.9501V25.9H27.4201V32H32.0001V25.9H30.4701V7.60999Z" fill="#5C2435"></path>
<path d="M28.9499 6.08997H25.8999V7.60997H28.9499V6.08997Z" fill="#5C2435"></path>
<path d="M25.8999 22.85H24.3799V24.38H25.8999V22.85Z" fill="#5C2435"></path>
<path d="M25.9 9.14001H19.8V10.66H25.9V9.14001Z" fill="#5C2435"></path>
<path d="M25.9001 4.56995H22.8501V6.08995H25.9001V4.56995Z" fill="#5C2435"></path>
<path d="M24.3801 24.38H21.3301V25.9H24.3801V24.38Z" fill="#5C2435"></path>
<path d="M24.3801 19.8101H21.3301V21.3301H24.3801V19.8101Z" fill="#5C2435"></path>
<path d="M22.85 13.71H19.8V15.23H22.85V13.71Z" fill="#5C2435"></path>
<path d="M22.85 3.04004H19.8V4.57004H22.85V3.04004Z" fill="#5C2435"></path>
<path d="M21.3299 25.9H9.13989V27.42H21.3299V25.9Z" fill="#5C2435"></path>
<path d="M21.3299 21.33H9.13989V22.85H21.3299V21.33Z" fill="#5C2435"></path>
<path d="M19.8 15.23H16.76V16.76H19.8V15.23Z" fill="#5C2435"></path>
<path d="M19.8 7.60999H13.71V9.13999H19.8V7.60999Z" fill="#5C2435"></path>
<path d="M19.8 1.52002H16.76V3.04002H19.8V1.52002Z" fill="#5C2435"></path>
<path d="M16.76 0H13.71V1.52H16.76V0Z" fill="#5C2435"></path>
<path d="M16.76 16.76H13.71V18.28H16.76V16.76Z" fill="#5C2435"></path>
<path d="M13.7099 1.52002H10.6599V3.04002H13.7099V1.52002Z" fill="#5C2435"></path>
<path d="M13.7099 15.23H10.6599V16.76H13.7099V15.23Z" fill="#5C2435"></path>
<path d="M10.6601 3.04004H7.61011V4.57004H10.6601V3.04004Z" fill="#5C2435"></path>
<path d="M9.14009 24.38H6.09009V25.9H9.14009V24.38Z" fill="#5C2435"></path>
<path d="M9.14009 19.8101H6.09009V21.3301H9.14009V19.8101Z" fill="#5C2435"></path>
<path d="M10.6601 13.71H7.61011V15.23H10.6601V13.71Z" fill="#5C2435"></path>
<path d="M7.61007 4.56995H4.57007V6.08995H7.61007V4.56995Z" fill="#5C2435"></path>
<path d="M6.09007 22.85H4.57007V24.38H6.09007V22.85Z" fill="#5C2435"></path>
<path d="M6.09002 19.81V18.28H4.57002V13.71H7.61002V12.19H4.57002V10.66H1.52002V12.19H3.04002V22.85H4.57002V19.81H6.09002Z" fill="#5C2435"></path>
<path d="M4.57002 6.08997H1.52002V7.60997H4.57002V6.08997Z" fill="#5C2435"></path>
<path d="M1.52 7.60999H0V10.66H1.52V7.60999Z" fill="#5C2435"></path>
</g>
<defs>
<clipPath id="clip0_26_36">
<rect width="32" height="32" fill="white"></rect>
</clipPath>
</defs>
</svg>