<svg width="56" height="74" viewBox="0 0 56 74" fill="none" xmlns="http://www.w3.org/2000/svg">
<path d="M53.1943 38.6866C54.5296 38.6867 55.6123 39.7693 55.6123 41.1045V51.5821C55.6123 52.9173 54.5296 53.9999 53.1943 54H2.41797C1.08259 54 0 52.9175 0 51.5821V41.1045C0 39.7692 1.08259 38.6866 2.41797 38.6866H53.1943ZM10.4775 48.3584C10.0325 48.3585 9.67191 48.719 9.67188 49.1641V50.7764C9.67203 51.2214 10.0325 51.582 10.4775 51.5821H45.1348C45.5796 51.5818 45.9403 51.2213 45.9404 50.7764V49.1641C45.9404 48.7192 45.5797 48.3587 45.1348 48.3584H10.4775Z" fill="#212121"></path>
<rect x="23.373" y="49.9702" width="8.86567" height="23.3731" rx="0.80597" fill="#2E2E2E"></rect>
<path d="M6.44775 0H49.1642V29.8209H6.44775V0Z" fill="url(#paint0_linear_40_28)"></path>
<path d="M6.44775 0H49.1642V29.8209H6.44775V0Z" fill="url(#paint1_linear_40_28)"></path>
<path d="M6.44775 48.3582H49.1642V29.8209H6.44775V48.3582Z" fill="url(#paint2_linear_40_28)"></path>
<path d="M6.44775 48.3582H49.1642V29.8209H6.44775V48.3582Z" fill="url(#paint3_linear_40_28)"></path>
<defs>
<linearGradient id="paint0_linear_40_28" x1="27.806" y1="14.9586" x2="27.806" y2="29.8209" gradientUnits="userSpaceOnUse">
<stop stop-color="#AEAEAE"></stop>
<stop offset="1" stop-color="#484848"></stop>
</linearGradient>
<linearGradient id="paint1_linear_40_28" x1="27.806" y1="22.5496" x2="27.806" y2="29.8209" gradientUnits="userSpaceOnUse">
<stop stop-color="#434343"></stop>
<stop offset="1" stop-color="#191919"></stop>
</linearGradient>
<linearGradient id="paint2_linear_40_28" x1="27.806" y1="39.0596" x2="27.806" y2="29.8209" gradientUnits="userSpaceOnUse">
<stop stop-color="#AEAEAE"></stop>
<stop offset="1" stop-color="#484848"></stop>
</linearGradient>
<linearGradient id="paint3_linear_40_28" x1="27.806" y1="34.3409" x2="27.806" y2="29.8209" gradientUnits="userSpaceOnUse">
<stop stop-color="#434343"></stop>
<stop offset="1" stop-color="#191919"></stop>
</linearGradient>
</defs>
</svg>