<svg width="32" height="32" viewBox="0 0 32 32" fill="none" xmlns="http://www.w3.org/2000/svg">
<g clip-path="url(#clip0_1_558)">
<path d="M32 7.62012H30.48V9.14012H32V7.62012Z" fill="#5C2435"></path>
<path d="M27.43 15.24V16.76H24.39V18.29H27.43V27.43H21.34V28.95H27.43V30.48H32V15.24H27.43Z" fill="#5C2435"></path>
<path d="M30.48 9.13989H28.96V10.6699H30.48V9.13989Z" fill="#5C2435"></path>
<path d="M28.96 7.62012H27.43V9.14012H28.96V7.62012Z" fill="#5C2435"></path>
<path d="M27.43 9.13989H25.91V10.6699H27.43V9.13989Z" fill="#5C2435"></path>
<path d="M27.43 1.53003H25.91V3.05003H27.43V1.53003Z" fill="#5C2435"></path>
<path d="M25.91 7.62012H24.39V9.14012H25.91V7.62012Z" fill="#5C2435"></path>
<path d="M24.39 15.24H22.86V16.76H24.39V15.24Z" fill="#5C2435"></path>
<path d="M22.86 13.72H21.34V15.24H22.86V13.72Z" fill="#5C2435"></path>
<path d="M21.34 22.8601H19.81V25.9101H16.77V28.9501H18.29V27.4301H21.34V22.8601Z" fill="#5C2435"></path>
<path d="M19.81 21.3401H18.29V22.8601H19.81V21.3401Z" fill="#5C2435"></path>
<path d="M19.81 3.05005H18.29V4.57005H19.81V3.05005Z" fill="#5C2435"></path>
<path d="M18.29 19.8101H16.77V21.3401H18.29V19.8101Z" fill="#5C2435"></path>
<path d="M18.29 16.76H16.77V18.29H18.29V16.76Z" fill="#5C2435"></path>
<path d="M21.34 12.1899H15.24V13.7199H21.34V12.1899Z" fill="#5C2435"></path>
<path d="M18.29 4.57007H16.77V6.10007H18.29V4.57007Z" fill="#5C2435"></path>
<path d="M18.29 1.53003H16.77V3.05003H18.29V1.53003Z" fill="#5C2435"></path>
<path d="M16.77 24.3799H15.24V25.9099H16.77V24.3799Z" fill="#5C2435"></path>
<path d="M16.77 18.29H15.24V19.81H16.77V18.29Z" fill="#5C2435"></path>
<path d="M16.77 3.05005H15.24V4.57005H16.77V3.05005Z" fill="#5C2435"></path>
<path d="M13.72 30.4799H9.15002V32H15.24V30.4799H16.77V28.95H13.72V30.4799Z" fill="#5C2435"></path>
<path d="M15.24 13.72H13.72V15.24H15.24V13.72Z" fill="#5C2435"></path>
<path d="M13.72 27.4299H12.19V28.9499H13.72V27.4299Z" fill="#5C2435"></path>
<path d="M15.24 19.8101H12.19V21.3401H15.24V19.8101Z" fill="#5C2435"></path>
<path d="M13.72 15.24H12.19V16.76H13.72V15.24Z" fill="#5C2435"></path>
<path d="M13.72 12.1899H10.67V13.7199H13.72V12.1899Z" fill="#5C2435"></path>
<path d="M12.19 25.9099H10.67V27.4299H12.19V25.9099Z" fill="#5C2435"></path>
<path d="M12.19 16.76H10.67V19.81H12.19V16.76Z" fill="#5C2435"></path>
<path d="M12.19 6.1001H10.67V7.6201H12.19V6.1001Z" fill="#5C2435"></path>
<path d="M10.67 13.72H9.15002V15.24H10.67V13.72Z" fill="#5C2435"></path>
<path d="M9.14999 28.95H7.62V30.4799H9.14999V28.95Z" fill="#5C2435"></path>
<path d="M9.14999 15.24H7.62V16.76H9.14999V15.24Z" fill="#5C2435"></path>
<path d="M4.58 27.43V18.29H7.62V16.76H4.58V15.24H0V30.48H4.58V28.95H7.62V27.43H4.58Z" fill="#5C2435"></path>
<path d="M7.61998 0H6.09998V1.53H7.61998V0Z" fill="#5C2435"></path>
<path d="M4.58003 12.1901V10.6701H6.10003V9.14012H4.58003V7.62012H3.05003V9.14012H1.53003V10.6701H3.05003V12.1901H4.58003Z" fill="#5C2435"></path>
</g>
<defs>
<clipPath id="clip0_1_558">
<rect width="32" height="32" fill="white"></rect>
</clipPath>
</defs>
</svg>