<svg width="32" height="32" viewBox="0 0 32 32" fill="none" xmlns="http://www.w3.org/2000/svg">
<g clip-path="url(#clip0_1_720)">
<path d="M31.235 8.38013H29.715V14.4801H31.235V8.38013Z" fill="#5C2435"></path>
<path d="M29.715 6.86011H28.185V8.38011H29.715V6.86011Z" fill="#5C2435"></path>
<path d="M28.185 28.1899H26.665V29.7199H28.185V28.1899Z" fill="#5C2435"></path>
<path d="M26.665 16H28.185V28.19H29.715V14.48H26.665V16Z" fill="#5C2435"></path>
<path d="M26.665 16H23.615V17.53H26.665V16Z" fill="#5C2435"></path>
<path d="M26.665 29.72H5.335V31.24H26.665V29.72Z" fill="#5C2435"></path>
<path d="M23.615 17.53H20.575V19.05H23.615V17.53Z" fill="#5C2435"></path>
<path d="M14.475 20.57V23.62H17.525V20.57H20.575V19.05H17.525V17.53H14.475V19.05H11.425V20.57H14.475Z" fill="#5C2435"></path>
<path d="M23.615 0.76001H8.375V2.29001H23.615V0.76001Z" fill="#5C2435"></path>
<path d="M11.425 17.53H8.375V19.05H11.425V17.53Z" fill="#5C2435"></path>
<path d="M8.375 16H5.335V17.53H8.375V16Z" fill="#5C2435"></path>
<path d="M28.185 6.86004V5.34004H25.145V2.29004H23.615V5.34004H8.375V2.29004H6.855V5.34004H3.805V6.86004H28.185Z" fill="#5C2435"></path>
<path d="M5.335 28.1899H3.805V29.7199H5.335V28.1899Z" fill="#5C2435"></path>
<path d="M3.805 16H5.335V14.48H2.285V28.19H3.805V16Z" fill="#5C2435"></path>
<path d="M3.805 6.86011H2.285V8.38011H3.805V6.86011Z" fill="#5C2435"></path>
<path d="M2.285 8.38013H0.764999V14.4801H2.285V8.38013Z" fill="#5C2435"></path>
</g>
<defs>
<clipPath id="clip0_1_720">
<rect width="32" height="32" fill="white"></rect>
</clipPath>
</defs>
</svg>