<svg width="95" height="52" viewBox="0 0 95 52" fill="none" xmlns="http://www.w3.org/2000/svg">
<path d="M8.16796 45.5535H6.40829V51.9689H8.16796C10.2104 51.9689 11.5302 50.711 11.5302 48.7612C11.5302 46.8114 10.2104 45.5535 8.16796 45.5535ZM7.61806 46.7171H8.12083C9.51913 46.7171 10.289 47.4404 10.289 48.7612C10.289 50.082 9.51913 50.8054 8.12083 50.8054H7.61806V46.7171Z" fill="#AB1F24"></path>
<path d="M14.0922 45.5535H12.8667V51.9689H14.0922V45.5535Z" fill="#AB1F24"></path>
<path d="M15.2379 46.7171H17.029V51.9689H18.2387V46.7171H20.0141V45.5535H15.2379V46.7171Z" fill="#AB1F24"></path>
<path d="M24.7427 45.5535L23.2658 48.1165L21.7732 45.5535H20.3907L22.6531 49.4216V51.9689H23.8628V49.4216L26.0938 45.5535H24.7427Z" fill="#AB1F24"></path>
<path d="M38.8517 48.5725C39.1502 48.2738 39.3073 47.8649 39.3073 47.3618C39.3073 46.2611 38.5374 45.5535 37.3277 45.5535H35.0652V51.9689H37.4534C38.7574 51.9689 39.5901 51.2142 39.5901 50.0506C39.5901 49.4059 39.3387 48.887 38.8517 48.5725ZM37.2805 46.7013C37.8304 46.7013 38.0975 46.9215 38.0975 47.3932C38.0975 47.8649 37.8776 48.0851 37.3748 48.0851H36.275V46.7013H37.2805ZM36.2907 49.2172H37.3905C38.0347 49.2172 38.3803 49.4845 38.3803 50.0191C38.3803 50.5538 38.0661 50.8211 37.4062 50.8211H36.2907V49.2172Z" fill="#AB1F24"></path>
<path d="M42.1374 45.5535H40.912V51.9689H42.1374V45.5535Z" fill="#AB1F24"></path>
<path d="M48.121 47.5976C48.121 46.3711 47.2255 45.5535 45.8743 45.5535H43.8318V51.9689H45.0416V49.626H45.8114L47.2569 51.9689H48.6552L47.0369 49.3744C47.7282 49.0442 48.121 48.4153 48.121 47.5976ZM45.0259 46.7171H45.8272C46.5342 46.7171 46.8798 47.0158 46.8798 47.6133C46.8798 47.9907 46.7698 48.4782 45.8272 48.4782H45.0259V46.7171Z" fill="#AB1F24"></path>
<path d="M50.7782 45.5535H49.5527V51.9689H53.4334V50.8211H50.7782V45.5535Z" fill="#AB1F24"></path>
<path d="M66.2196 49.6259H67.9479V50.4436C67.5865 50.7109 67.1152 50.8367 66.5338 50.8367C65.3241 50.8367 64.4442 49.9561 64.4442 48.7296C64.4442 47.5031 65.2769 46.6226 66.4396 46.6226C67.288 46.6226 67.6965 46.9528 67.9793 47.2673L68.1992 47.5189L69.0634 46.7012L68.8434 46.4653C68.2307 45.7892 67.4451 45.459 66.4396 45.459C64.6171 45.459 63.1873 46.8899 63.1873 48.7296C63.1873 50.6008 64.6171 52.0003 66.5181 52.0003C67.5394 52.0003 68.3249 51.7172 69.0162 51.1197L69.1262 51.0254V48.478H66.2039V49.6259" fill="#AB1F24"></path>
<path d="M74.8335 47.5659C74.8335 46.3394 73.938 45.5217 72.5868 45.5217H70.5443V51.9372H71.7541V49.5943H72.524L73.9694 51.9372H75.3677L73.7494 49.3427C74.4407 49.0125 74.8335 48.3678 74.8335 47.5659ZM71.7541 46.6696H72.5554C73.2624 46.6696 73.5923 46.9684 73.5923 47.5659C73.5923 47.9433 73.4824 48.4307 72.5554 48.4307H71.7541V46.6696Z" fill="#AB1F24"></path>
<path d="M79.1695 45.459C77.3313 45.459 75.9016 46.8899 75.9016 48.7296C75.9016 50.5694 77.3313 52.0003 79.1695 52.0003C81.0077 52.0003 82.4532 50.5694 82.4532 48.7296C82.4532 46.8899 81.0077 45.459 79.1695 45.459ZM79.1695 50.8367C77.9912 50.8367 77.127 49.9561 77.127 48.7296C77.127 47.5031 77.9912 46.6226 79.1695 46.6226C80.3478 46.6226 81.212 47.5031 81.212 48.7296C81.212 49.9561 80.3478 50.8367 79.1695 50.8367Z" fill="#AB1F24"></path>
<path d="M87.1807 49.61C87.1807 50.4277 86.7879 50.8365 86.0338 50.8365C85.2796 50.8365 84.8868 50.412 84.8868 49.61V45.5217H83.6771V49.6415C83.6771 51.0724 84.604 51.9844 86.0338 51.9844C87.4635 51.9844 88.3904 51.0567 88.3904 49.6415V45.5217H87.1807V49.61Z" fill="#AB1F24"></path>
<path d="M92.0193 45.5217H89.9926V51.9372H91.2023V49.6415H92.0036C93.3705 49.6415 94.2503 48.8395 94.2503 47.5816C94.266 46.3394 93.3862 45.5217 92.0193 45.5217ZM91.218 46.6696H91.9879C92.6949 46.6696 93.0248 46.9684 93.0248 47.5816C93.0248 48.1948 92.6792 48.4779 91.9879 48.4779H91.218V46.6696Z" fill="#AB1F24"></path>
<path d="M0 51.9525H1.19406L1.72824 50.6317H3.73929L4.27347 51.9525H5.48324L2.74947 45.3169L0 51.9525ZM2.16816 49.5467L2.73376 48.1473L3.29937 49.5467H2.16816Z" fill="#AB1F24"></path>
<path d="M25.6566 51.9684H26.8507L27.3692 50.6475H29.3802L29.9144 51.9684H31.1242L28.3904 45.3328L25.6566 51.9684ZM27.8091 49.5783L28.3747 48.1788L28.9403 49.5783H27.8091Z" fill="#AB1F24"></path>
<path d="M54.2019 51.9525H55.396L55.9301 50.6317H57.9412L58.4754 51.9525H59.6851L56.9514 45.3169L54.2019 51.9525ZM56.3544 49.5467L56.92 48.1473L57.4856 49.5467H56.3544Z" fill="#AB1F24"></path>
<path d="M79.8308 25.6777L71.0011 29.7502L61.3072 17.6583L72.1323 0H79.8308V25.6777Z" fill="#AB1F24"></path>
<path d="M79.8287 40.7568V25.6772L70.999 29.7498L79.8287 40.7568Z" fill="#EF7032"></path>
<path d="M61.306 17.6583L47.1345 0H72.1311L61.306 17.6583Z" fill="#EF7032"></path>
<path d="M57.4096 24.0108L61.2903 17.6739L47.1345 0.015625V21.1647H47.2287C50.968 21.149 54.4559 22.2025 57.4096 24.0108Z" fill="#FFD35D"></path>
<path d="M47.2287 21.1487H47.1345V40.7568L57.4096 24.0105C54.4402 22.2022 50.968 21.1487 47.2287 21.1487Z" fill="#AB1F24"></path>
<path d="M65.0127 32.5181L70.9987 29.7506L61.3048 17.6587L57.4084 24.0113C60.7078 26.024 63.363 28.9801 65.0127 32.5181Z" fill="#EF7032"></path>
<path d="M57.4096 24.011L47.1345 40.773L65.0139 32.5178C63.3642 28.9798 60.709 26.0237 57.4096 24.011Z" fill="#D31F26"></path>
<path d="M70.9984 29.7498L65.0124 32.5172C66.1751 35.0174 66.8349 37.8163 66.8349 40.7724H79.8282L70.9984 29.7498Z" fill="#FFD35D"></path>
<path d="M47.1345 40.7574H66.8207C66.8207 37.817 66.1765 35.0181 65.0139 32.5022L47.1345 40.7574Z" fill="#AB1F24"></path>
<path d="M14.4544 25.6777L23.2841 29.7502L32.978 17.6583L22.1529 0H14.4544V25.6777Z" fill="#AB1F24"></path>
<path d="M14.4544 40.7568V25.6772L23.2841 29.7498L14.4544 40.7568Z" fill="#EF7032"></path>
<path d="M32.9763 17.6583L47.1322 0H22.1512L32.9763 17.6583Z" fill="#EF7032"></path>
<path d="M36.8565 24.0108L32.9758 17.6739L47.1317 0.015625V21.1647H47.0374C43.3139 21.149 39.8259 22.2025 36.8565 24.0108Z" fill="#D31F26"></path>
<path d="M47.0383 21.1487H47.1325V40.7568L36.8731 24.0105C39.8268 22.2022 43.3147 21.1487 47.0383 21.1487Z" fill="#EF7032"></path>
<path d="M29.2685 32.5181L23.2825 29.7506L32.9763 17.6587L36.857 23.9955C33.5576 26.024 30.9024 28.9801 29.2685 32.5181Z" fill="#EF7032"></path>
<path d="M36.8576 24.011L47.1328 40.773L29.269 32.5178C30.903 28.9798 33.5582 26.0237 36.8576 24.011Z" fill="#D31F26"></path>
<path d="M23.2841 29.7498L29.2701 32.5172C28.1075 35.0174 27.4476 37.8163 27.4476 40.7724H14.4544L23.2841 29.7498Z" fill="#FFD35D"></path>
<path d="M47.1318 40.7574H27.4456C27.4456 37.817 28.0897 35.0181 29.2681 32.5022L47.1318 40.7574Z" fill="#AB1F24"></path>
</svg>