<svg width="64" height="40" viewBox="0 0 64 40" fill="none" xmlns="http://www.w3.org/2000/svg">
<g clip-path="url(#clip0_282_877)">
<path d="M35.8997 14.9822H37.9772L38.1594 15.1266L38.5968 15.7403L39.107 16.4262L39.5444 17.0399L39.9817 17.6176L40.3462 18.123L41.2938 19.4226L41.7312 20.0002L42.0956 20.5056L42.6059 21.1916L42.8974 21.5887V21.6609H42.9703V14.9822H44.9749L45.0113 15.0183V25.0905L44.7198 25.1266H43.0068L42.6788 24.7295L42.205 24.0797L41.8405 23.5742L41.3667 22.9244L40.8564 22.2385L39.9088 20.9389L39.5808 20.5056L39.107 19.8558L38.7426 19.3504L38.2323 18.6645L37.9772 18.3035L37.9407 25.0905L37.6856 25.1266H35.9362L35.8633 24.8739V15.0183L35.8997 14.9822Z" fill="#4567A3"></path>
<path d="M20.5909 14.8376H21.903L22.559 14.9459L23.288 15.1626L23.8711 15.4514L24.3814 15.7763L24.7458 16.0651L25.2561 16.5705L25.6205 17.0759L25.9486 17.6535L26.2037 18.3034L26.3495 18.8449L26.4588 19.8557V20.3611L26.313 21.408L26.0943 22.1301L25.7663 22.816L25.4748 23.2492L25.1103 23.7185L24.8552 23.9712L24.4543 24.2961L23.9076 24.6571L23.288 24.946L22.559 25.1626L21.9394 25.2709L21.575 25.307H20.9189L20.0442 25.1987L19.3153 25.0182L18.7322 24.7654L18.1855 24.4766L17.6752 24.0795L17.165 23.5741L16.8005 23.1048L16.4725 22.5272L16.2538 21.9857L16.108 21.5163L15.9987 20.9748L15.9258 20.1806L15.9622 19.4225L16.0716 18.7366L16.2902 18.0145L16.6183 17.3286L17.0556 16.6788L17.493 16.2095L17.8939 15.8485L18.5135 15.4514L19.206 15.1265L19.9713 14.9098L20.5909 14.8376ZM20.9554 16.6427L20.4451 16.7149L19.8984 16.8954L19.4975 17.112L19.0237 17.473L18.6957 17.834L18.3312 18.4478L18.1126 19.0976L18.0397 19.4947V20.6138L18.149 21.1553L18.3677 21.733L18.6593 22.2023L19.0602 22.6355L19.3882 22.9243L19.8256 23.177L20.3358 23.3575L20.7367 23.4297H21.7572L22.3404 23.2853L22.9235 22.9965L23.2515 22.7438L23.6524 22.3467L23.9805 21.8413L24.1991 21.2997L24.3449 20.686V19.4586L24.1991 18.8449L24.0169 18.4117L23.7253 17.9062L23.3973 17.5091L23.0693 17.2203L22.4861 16.8954L21.9394 16.7149L21.4656 16.6427H20.9554Z" fill="#4467A3"></path>
<path d="M7.65363 14.9822H11.5899L12.2459 15.0544L12.9748 15.271L13.4486 15.5237L13.8131 15.8125L14.1047 16.1013L14.3962 16.6067L14.542 17.0038L14.6514 17.6537V17.9786L14.542 18.5562L14.2504 19.1338L13.8495 19.567L13.5944 19.7836V19.8558L13.9589 20.0724L14.3962 20.4695L14.7242 20.975L14.87 21.336L14.9794 21.7331V22.6717L14.8336 23.2854L14.5785 23.7908L14.3233 24.1158L13.9953 24.4407L13.5215 24.7295L13.0113 24.9461L12.2459 25.0905L11.7721 25.1266H7.69008L7.65363 25.0905L7.61719 24.4407V15.0544L7.65363 14.9822ZM9.62174 16.6067V19.0616L9.87687 19.0977L11.6263 19.0616L12.0637 18.8811L12.3552 18.6284L12.5375 18.2674L12.5739 17.7259L12.501 17.3648L12.3188 17.076L12.0637 16.8233L11.7721 16.6789L11.4805 16.6067H9.62174ZM9.62174 20.7584V23.3576H11.517L12.1001 23.2493L12.3917 23.1049L12.6832 22.8522L12.829 22.5995L12.9019 22.2746V21.8053L12.7926 21.4443L12.5375 21.1194L12.173 20.9028L11.8814 20.7945L11.6627 20.7584H9.62174Z" fill="#4668A4"></path>
<path d="M50.2252 14.9822H52.3027L52.4485 15.1988L53.141 16.9677L53.5054 17.8703L53.9063 18.8811L54.5259 20.4334L54.8539 21.2638L55.1091 21.8775L55.3278 22.4551L55.8744 23.8269L56.3483 25.0183L56.2389 25.1266H54.2708L54.125 24.91L53.469 23.1771L53.3596 22.9244H49.1683L48.5852 24.4407L48.33 25.0544L48.2571 25.1266H46.2161L46.1797 25.0183L46.7993 23.4659L48.002 20.4334L48.6945 18.7006L49.3505 17.0399L50.0795 15.2349L50.1888 15.0183L50.2252 14.9822ZM51.2093 17.5093L50.8813 18.4118L50.4439 19.5309L49.9337 20.8667L49.8608 21.0833L51.3186 21.1194L52.6672 21.0833L52.412 20.3612L51.9382 19.1338L51.5738 18.1952L51.2822 17.5093H51.2093Z" fill="#4568A3"></path>
<path d="M28.0638 14.9822H30.0319L30.0683 15.0183V23.2493H34.4784L34.5513 23.2854V25.0905L34.4784 25.1266H28.1002L28.0273 25.0905V15.0183L28.0638 14.9822Z" fill="#4668A4"></path>
<path d="M5.94008 7.94263H6.34099L6.45033 8.01483V32.0221L6.41388 32.0943L6.30455 32.1304H5.97653L5.86719 31.986V8.05093L5.94008 7.94263Z" fill="#4467A3"></path>
<path d="M1.6393 11.1914H2.04021L2.14955 11.2636V28.7004L2.1131 28.8448L2.04021 28.8809H1.71219L1.56641 28.7365V11.2636L1.6393 11.1914Z" fill="#4467A3"></path>
<path d="M56.1654 10.9749H56.4934L56.6756 11.0471L56.712 11.0832V28.881L56.6392 29.0615L56.5663 29.0976H56.2382L56.1289 28.9893V25.4153L56.1654 25.3792L56.4934 25.307L56.5663 25.2348L56.6027 25.0543L56.4934 24.6572L56.1289 23.6824V11.0471L56.1654 10.9749Z" fill="#5071A9"></path>
<path d="M57.7668 11.4441L58.1313 11.5163V28.4838L58.0584 28.5921H57.6575L57.5482 28.4477L57.5117 20.4694V18.8809L57.5482 11.5885L57.6211 11.4802L57.7668 11.4441Z" fill="#4567A3"></path>
<path d="M47.5638 3.57422H47.8918L48.074 3.64642L48.1105 3.71862V19.0977L48.0376 19.567L47.8189 20.1085L47.6002 20.6861H47.5273V3.61032L47.5638 3.57422Z" fill="#4E6FA8"></path>
<path d="M41.8424 3.57422H42.2433L42.3162 3.61032L42.3527 3.71862V20.3612L42.1704 20.1807L41.8424 19.7114L41.7695 19.567V3.64642L41.8424 3.57422Z" fill="#4467A3"></path>
<path d="M46.1432 8.80859H46.5077L46.617 8.84469L46.6535 8.9169V22.6353L46.617 23.1407L46.2161 24.1877L46.1432 24.3682L46.0703 24.3321V8.8808L46.1432 8.80859Z" fill="#4E6FA8"></path>
<path d="M43.1914 25.3792H43.7381L43.7745 25.4153V39.7835L43.7381 39.8918L43.4101 40.0001L43.2279 39.8557L43.1914 39.7835V25.3792Z" fill="#4467A3"></path>
<path d="M4.70044 12.7075L4.95556 12.7797L5.02846 12.888V27.1841L4.91912 27.2924L4.84622 27.3285H4.5911L4.44531 27.1841V12.8158L4.51821 12.7436L4.70044 12.7075Z" fill="#4467A3"></path>
<path d="M43.3007 0.144775H43.7017L43.7745 0.216978V14.6213L43.7381 14.6574H43.2279L43.1914 14.6213V0.253079L43.3007 0.144775Z" fill="#4467A3"></path>
<path d="M3.09762 13.105H3.46209L3.57142 13.2133L3.60787 13.3938V26.7151L3.49853 26.9317L3.46209 26.9678H3.17051L3.02473 26.8595L2.98828 23.2133V17.1844L3.02473 13.1411L3.09762 13.105Z" fill="#476AA4"></path>
<path d="M54.7799 6.71509H55.0715L55.2537 6.78729L55.2902 6.85949V21.5165L55.2173 21.4082L54.8164 20.4335L54.707 20.0725V6.78729L54.7799 6.71509Z" fill="#4467A3"></path>
<path d="M7.39711 8.19531L7.76158 8.23141L7.87092 8.26751L7.90736 8.33972V14.6213L7.87092 14.6574L7.43356 14.7296V25.3072L7.87092 25.3794L7.90736 25.4155V31.661L7.79802 31.8415L7.5429 31.8776L7.36067 31.7693L7.32422 31.7332V8.26751L7.39711 8.19531Z" fill="#486AA5"></path>
<path d="M0.184884 13.105H0.476456L0.695135 13.1772L0.731581 13.2494V26.7151L0.658688 26.9317L0.549349 26.9678H0.257777L0.148438 26.8595V13.1411L0.184884 13.105Z" fill="#5272AA"></path>
<path d="M59.0416 13.6462H59.479L59.5519 13.6823L59.5883 13.8267V26.1733L59.5154 26.3899L59.4426 26.426H59.1145L59.0052 26.3177L58.9688 23.4657V16.4982L59.0052 13.6823L59.0416 13.6462Z" fill="#4568A3"></path>
<path d="M27.4791 11.5525H27.8436L27.9529 11.5886L27.9894 11.6608V14.4767L27.9165 14.7294L27.8072 14.7655V25.2709L27.9529 25.3431L27.9894 25.5597V28.4117L27.8801 28.52H27.5156L27.4062 28.4117V11.6247L27.4791 11.5525Z" fill="#496BA5"></path>
<path d="M60.608 13.6104L60.8996 13.6465L61.0089 13.7548V26.2818L60.8631 26.4262H60.5351L60.4258 26.2818V13.7548L60.4987 13.6465L60.608 13.6104Z" fill="#4467A3"></path>
<path d="M45.0493 25.343H45.2316V37.7979L45.1951 37.9423L45.0493 37.9784H44.7942L44.6849 37.9423L44.6484 37.8701V25.3791L45.0493 25.343Z" fill="#4467A3"></path>
<path d="M44.7213 2.09424H45.0858L45.2316 2.16644V14.6935L45.1587 14.7296L45.0493 14.6935L44.6484 14.6574V2.16644L44.7213 2.09424Z" fill="#4467A3"></path>
<path d="M34.8059 13.3215L35.1339 13.3937L35.1704 13.4659V26.5706L35.0246 26.715H34.6966L34.6237 26.6789L34.5872 26.5706V25.4154L34.8059 25.271L34.8424 25.0544V23.2132L34.733 23.0327L34.5872 22.9605L34.5508 22.8883L34.5872 13.4298L34.8059 13.3215Z" fill="#4467A3"></path>
<path d="M41.7695 24.0073L41.9518 24.1878L42.2798 24.6571L42.3527 24.8376V36.2817L42.2798 36.4622L42.2433 36.4983H41.9153L41.7695 36.3539V24.0073Z" fill="#4467A3"></path>
<path d="M33.3463 11.1194L33.6743 11.1555L33.7472 11.2999V22.9244L33.7108 22.9605H33.1641V11.1916L33.3463 11.1194Z" fill="#4467A3"></path>
<path d="M50.3711 23.177H50.9178L50.9542 23.2131V34.4766L50.8449 34.621H50.5169L50.3711 34.4405V23.177Z" fill="#4467A3"></path>
<path d="M31.9622 11.5161L32.2537 11.5522L32.2902 11.6605V22.9241L32.2537 22.9602H31.707V11.6605L31.7799 11.5522L31.9622 11.5161Z" fill="#4467A3"></path>
<path d="M47.5638 25.3792H48.074L48.1105 25.4153V35.5597L48.074 36.39L47.9283 36.4983H47.6367L47.5638 36.4622L47.5273 36.3539V25.4153L47.5638 25.3792Z" fill="#4F70A8"></path>
<path d="M62.0325 14.5127L62.397 14.5488L62.4699 14.7293V25.3069L62.397 25.4874L62.3605 25.5235H61.9596L61.8867 25.4152V14.5849L62.0325 14.5127Z" fill="#4467A3"></path>
<path d="M63.3776 14.5491H63.8514L63.8878 14.6574V25.2711L63.8149 25.4877L63.7785 25.5238H63.3776L63.3047 25.3794V14.5852L63.3776 14.5491Z" fill="#4467A3"></path>
<path d="M53.4322 6.24585L53.7603 6.28195L53.8331 6.35415V17.8343L53.7603 17.7982L53.4687 17.0401L53.25 16.4264V6.35415L53.4322 6.24585Z" fill="#4467A3"></path>
<path d="M30.4674 11.3359L30.759 11.372L30.8683 11.4803V22.9244L30.8319 22.9605H30.358L30.3216 14.946L30.2852 14.7294V11.4442L30.3216 11.372L30.4674 11.3359Z" fill="#4467A3"></path>
<path d="M10.2044 25.3792H10.7147L10.7511 25.4153V35.7763L10.7147 35.8846L10.6418 35.9207H10.3502L10.168 35.7402V25.4153L10.2044 25.3792Z" fill="#4467A3"></path>
<path d="M10.3138 4.15161H10.6418L10.7511 4.25991V14.6209L10.7147 14.657H10.168V4.29602L10.3138 4.15161Z" fill="#4467A3"></path>
<path d="M14.6172 8.77271H14.9452L15.0545 8.84491L15.091 8.95321V21.011L15.0181 20.9027L14.69 20.3612L14.5078 20.1084V19.2781L14.7994 18.6283L14.9087 18.2312V17.5453L14.8358 17.0399L14.6536 16.4622L14.5078 16.1373V8.84491L14.6172 8.77271Z" fill="#4769A4"></path>
<path d="M53.25 23.3936L53.3229 23.4658L53.578 24.2239L53.7967 24.8015L53.8331 24.982V33.6463L53.7967 33.7546L53.7238 33.7907H53.3593L53.2864 33.7546L53.25 33.6463V23.3936Z" fill="#4467A3"></path>
<path d="M51.8281 23.177H52.3748L52.4113 23.2131V32.5272L52.3384 32.6716L52.1926 32.7438L51.9375 32.7077L51.8281 32.5994V23.177Z" fill="#4467A3"></path>
<path d="M49.3866 23.1409L49.5324 23.177V32.7799L49.4959 32.8882L49.423 32.9243H49.0586L48.9492 32.816V24.2961L49.1315 23.6824L49.3501 23.177L49.3866 23.1409Z" fill="#4467A3"></path>
<path d="M49.1679 7.11182L49.4595 7.14792L49.5324 7.22012V15.6317L49.4595 15.9927L49.0586 17.0035L48.9857 17.184H48.9492V7.18402L49.1679 7.11182Z" fill="#4467A3"></path>
<path d="M50.4804 5.45142H50.8813L50.9542 5.55972V14.6211L50.9178 14.6572H50.3711V5.59582L50.4804 5.45142Z" fill="#4467A3"></path>
<path d="M26.0247 8.80859H26.4621L26.5714 8.9169V18.3032L26.4985 18.2671L26.207 17.509L25.9883 17.0396V8.84469L26.0247 8.80859Z" fill="#4567A3"></path>
<path d="M26.535 21.8052H26.5714V31.0471L26.4985 31.2276L26.2799 31.2998L26.0247 31.1915L25.9883 31.1554V22.9965L26.3527 22.2384L26.535 21.8052Z" fill="#4467A3"></path>
<path d="M20.3034 5.88452H20.6678L20.8136 5.99282V14.4766L20.5585 14.5488H20.2305V5.95672L20.3034 5.88452Z" fill="#4467A3"></path>
<path d="M20.2669 25.4875L20.7043 25.5236L20.8136 25.5959V33.9713L20.7772 34.1518L20.7043 34.1879H20.4127L20.2669 34.1157L20.2305 34.0435V25.5236L20.2669 25.4875Z" fill="#4467A3"></path>
<path d="M38.8906 20.0725L39.0729 20.253L39.4373 20.7945L39.4738 20.8667V28.7729L39.4009 28.9173L39.1458 28.9534L38.9271 28.8812L38.8906 28.809V20.0725Z" fill="#4467A3"></path>
<path d="M54.707 25.3792H55.2537L55.2902 25.4153V33.0687L55.2173 33.3214L54.8528 33.3575L54.7435 33.3214L54.707 33.2492V25.3792Z" fill="#4467A3"></path>
<path d="M15.0545 23.3936H15.091V31.0831L14.9816 31.2636L14.9452 31.2997H14.6536L14.5078 31.1553V24.3683L14.7265 24.0434L14.9452 23.6824L15.0545 23.3936Z" fill="#4467A3"></path>
<path d="M52.0104 7.32861L52.3384 7.36471L52.4113 7.47302V14.6571H51.8281V7.40082L52.0104 7.32861Z" fill="#4467A3"></path>
<path d="M23.3281 7.54517L23.5467 7.58127L23.6925 7.72567V14.982L23.5103 14.9459L23.1094 14.7654V7.68957L23.2187 7.58127L23.3281 7.54517Z" fill="#4467A3"></path>
<path d="M23.5467 25.0903H23.6925V32.3467L23.5467 32.4911H23.2552L23.1094 32.3467V25.3069L23.5467 25.0903Z" fill="#4467A3"></path>
<path d="M40.3802 10.8306H40.8176L40.9269 10.975V18.4479L40.7447 18.2674L40.3438 17.6537V10.8667L40.3802 10.8306Z" fill="#4467A3"></path>
<path d="M11.6263 25.3792H12.2094V32.2384L12.173 32.4189L12.0272 32.4911H11.7721L11.6263 32.3467L11.5898 30.686V28.4477L11.6263 25.3792Z" fill="#476AA4"></path>
<path d="M11.6979 7.5813H12.0259L12.1717 7.6535L12.2081 7.7257V14.7293L11.6614 14.6932L11.625 14.6571V7.6535L11.6979 7.5813Z" fill="#4467A3"></path>
<path d="M21.7252 7.65356H22.1626L22.2719 7.79797V14.585L21.6888 14.5128L21.6523 12.1662V11.1193L21.6888 7.68967L21.7252 7.65356Z" fill="#4668A4"></path>
<path d="M24.677 8.77271H25.0415L25.1144 8.84491V15.9207L24.9686 15.8846L24.7135 15.6319L24.5312 15.4875V8.91711L24.677 8.77271Z" fill="#4467A3"></path>
<path d="M25.0415 24.1157L25.1144 24.1518V31.1915L24.9686 31.2998L24.6406 31.2637L24.5312 31.0832V24.585L24.8593 24.2962H24.9322L25.0051 24.1518L25.0415 24.1157Z" fill="#4467A3"></path>
<path d="M22.121 25.4875H22.2667V32.1662L22.1574 32.419L21.9387 32.4551L21.72 32.3829L21.6836 32.3107V25.5598L22.121 25.4875Z" fill="#4467A3"></path>
<path d="M40.3438 22.0579L40.4895 22.2023L40.8904 22.7799L40.9269 22.8521V28.9893L40.854 29.2059L40.7082 29.2781L40.4895 29.242L40.3438 29.1337V22.0579Z" fill="#4467A3"></path>
<path d="M15.9258 21.8416L15.9987 21.9138L16.1809 22.4553L16.4725 22.9968L16.5089 23.1412V29.0618L16.436 29.2062L16.1809 29.2784L15.9622 29.1701L15.9258 29.0979V21.8416Z" fill="#4467A3"></path>
<path d="M15.9987 10.8306H16.3996L16.5089 10.9389V16.7511L16.436 17.1122L16.1445 17.6898L16.0351 17.9425L15.9622 18.2313H15.9258V10.9389L15.9987 10.8306Z" fill="#4567A3"></path>
<path d="M7.32422 25.1987H7.39711L7.43356 25.307L7.87092 25.3792L7.90736 25.4153V31.6608L7.79802 31.8413L7.5429 31.8774L7.36067 31.7691L7.32422 31.733V25.1987Z" fill="#4467A3"></path>
<path d="M13.2616 8.73657L13.5168 8.77267L13.6261 8.91708V15.2709L13.4439 15.1987L13.043 14.9821V8.91708L13.1523 8.77267L13.2616 8.73657Z" fill="#4467A3"></path>
<path d="M13.5168 24.9822H13.6261V31.0833L13.5532 31.2638L13.5168 31.2999H13.2252L13.043 31.1194V25.1988L13.371 25.0544L13.5168 24.9822Z" fill="#4467A3"></path>
<path d="M20.7043 16.9316L20.8136 16.9677V23.0688L20.7407 23.1049L20.2669 22.9966L20.2305 22.9605V17.076L20.7043 16.9316Z" fill="#4467A3"></path>
<path d="M21.6836 16.9678L22.0481 17.0039L22.2667 17.1122V22.9606L21.9752 23.0689L21.6836 23.105V16.9678Z" fill="#4467A3"></path>
<path d="M8.78254 25.3792H9.29279L9.32924 25.4153V31.0831L9.25634 31.2636L9.147 31.2997H8.89188L8.74609 31.1553V25.4153L8.78254 25.3792Z" fill="#4F70A8"></path>
<path d="M46.0703 25.3792H46.617L46.6535 25.4153V31.1553L46.617 31.2275L46.5077 31.2636H46.1797L46.0703 31.1192V25.3792Z" fill="#4F70A8"></path>
<path d="M8.85543 8.77271H9.11056L9.29279 8.80881L9.32924 8.88101V14.6211L9.29279 14.6572H8.78254L8.74609 14.6211V8.84491L8.85543 8.77271Z" fill="#4F70A8"></path>
<path d="M17.3516 24.1157L17.5338 24.224V24.2962L17.6796 24.3684L17.8983 24.5128L17.9347 24.585V29.5309L17.8618 29.7836H17.5338L17.3516 29.6031V24.1157Z" fill="#4E6FA8"></path>
<path d="M17.4973 10.2888H17.8618L17.9347 10.361V15.4152L17.8983 15.5235L17.6796 15.6679L17.388 15.8845L17.3516 15.8484V10.3971L17.4973 10.2888Z" fill="#4F70A8"></path>
<path d="M18.8047 25.0903L19.0234 25.1264L19.3514 25.2708L19.3878 25.3069V29.8918L19.3149 30.1084L19.2785 30.1445H18.9505L18.8411 30.1084L18.8047 30.0362V25.0903Z" fill="#4F70A8"></path>
<path d="M39.1458 11.1194L39.4373 11.1555L39.4738 11.2277V16.4623L39.2915 16.2818L38.9271 15.7403L38.8906 15.6681V11.2277L38.9635 11.1555L39.1458 11.1194Z" fill="#4567A3"></path>
<path d="M18.8776 9.92798H19.2785L19.3514 9.96408L19.3878 10.0724V14.7294L19.2056 14.8377L18.9505 14.946H18.8047V9.96408L18.8776 9.92798Z" fill="#5070A8"></path>
<path d="M28.9036 25.3792H29.4139L29.4503 25.4153V29.4225L29.4139 29.6752L29.2681 29.7835H28.9765L28.8672 29.6752V25.4153L28.9036 25.3792Z" fill="#4F70A8"></path>
<path d="M28.9401 10.2888H29.2681L29.4139 10.361L29.4503 10.5054V14.6209L29.3774 14.6571H28.9036L28.8672 14.6209V10.361L28.9401 10.2888Z" fill="#4F70A8"></path>
<path d="M19.3149 17.5813L19.3878 17.6174V22.4188H19.2785L18.9869 22.0939L18.8047 21.8051V18.2672L19.0598 17.8701L19.3149 17.5813Z" fill="#5272AA"></path>
<path d="M23.1094 17.6172L23.3281 17.7977L23.6196 18.1948L23.6925 18.4114V21.6605L23.5103 22.0215L23.2187 22.3825L23.1094 22.4547V17.6172Z" fill="#4568A3"></path>
<path d="M33.1641 25.3792H33.7108L33.7472 25.4153V28.7727L33.6014 28.9171L33.3827 28.9532L33.2005 28.881L33.1641 28.8088V25.3792Z" fill="#4467A3"></path>
<path d="M30.2852 25.3792H30.8319L30.8683 25.4153V28.4838L30.8319 28.6643L30.759 28.7005H30.4309L30.2852 28.5921V25.3792Z" fill="#4467A3"></path>
<path d="M31.707 25.3792H32.2537L32.2902 25.4153V28.4116L32.1808 28.5199L31.9257 28.556L31.7435 28.4477L31.707 28.3394V25.3792Z" fill="#4467A3"></path>
<path d="M36.0039 25.3792H36.5506L36.587 25.4153V28.1589L36.5142 28.2311H36.1132L36.0039 28.0506V25.3792Z" fill="#5070A9"></path>
<path d="M36.0768 11.8416H36.5142L36.587 11.9138V14.6213L36.5506 14.6574H36.0404L36.0039 14.6213V12.0221L36.0768 11.8416Z" fill="#4F70A8"></path>
<path d="M10.168 21.0107H10.7147L10.7511 21.0468V22.9963L10.7147 23.0324H10.168V21.0107Z" fill="#4467A3"></path>
<path d="M10.168 16.8591H10.7511V18.7364L10.7147 18.7725H10.2044L10.168 18.7364V16.8591Z" fill="#4769A4"></path>
<path d="M11.625 21.0471L11.9166 21.0832L12.1717 21.1915L12.2081 21.2637V22.8161L12.0624 22.9244L11.8072 22.9966H11.625V21.0471Z" fill="#4568A3"></path>
<path d="M37.5013 25.3792H38.0115L38.048 25.4153V26.7871L38.0115 26.9315L37.9386 26.9676H37.5742L37.4648 26.8593V25.4153L37.5013 25.3792Z" fill="#4F70A8"></path>
<path d="M37.5377 13.105H37.9386L38.048 13.2133V14.6212L38.0115 14.6573H37.5013L37.4648 14.6212V13.1772L37.5377 13.105Z" fill="#4F70A8"></path>
<path d="M11.625 16.9316L11.8801 17.0399L12.0988 17.2204L12.2081 17.4732V18.1591L12.0988 18.4118L11.7708 18.7006H11.625V16.9316Z" fill="#4568A3"></path>
<path d="M50.9178 19.0613H50.9542V20.758L50.9178 20.7941H50.444L50.3711 20.758L50.4075 20.4692L50.6627 19.7472L50.8813 19.2057L50.9178 19.0613Z" fill="#4B6DA6"></path>
<path d="M51.8281 19.7114L51.901 19.8197L52.229 20.6862V20.7584L52.1561 20.7945H51.8281V19.7114Z" fill="#5575AB"></path>
</g>
<defs>
<clipPath id="clip0_282_877">
<rect width="64" height="40" fill="white"></rect>
</clipPath>
</defs>
</svg>