<svg width="14" height="14" viewBox="0 0 14 14" fill="none" xmlns="http://www.w3.org/2000/svg">
<g clip-path="url(#clip0_1_270)">
<path d="M3.5 11.6667V10.5C3.5 9.57174 3.86875 8.6815 4.52513 8.02513C5.1815 7.36875 6.07174 7 7 7C7.92826 7 8.8185 7.36875 9.47487 8.02513C10.1313 8.6815 10.5 9.57174 10.5 10.5V11.6667C10.5 11.8214 10.4385 11.9697 10.3291 12.0791C10.2197 12.1885 10.0714 12.25 9.91667 12.25H4.08333C3.92862 12.25 3.78025 12.1885 3.67085 12.0791C3.56146 11.9697 3.5 11.8214 3.5 11.6667Z" stroke="#8F3C1E" stroke-width="1.25" stroke-linecap="round" stroke-linejoin="round"></path>
<path d="M3.5 3.5V2.33333C3.5 2.17862 3.56146 2.03025 3.67085 1.92085C3.78025 1.81146 3.92862 1.75 4.08333 1.75H9.91667C10.0714 1.75 10.2197 1.81146 10.3291 1.92085C10.4385 2.03025 10.5 2.17862 10.5 2.33333V3.5C10.5 4.42826 10.1313 5.3185 9.47487 5.97487C8.8185 6.63125 7.92826 7 7 7C6.07174 7 5.1815 6.63125 4.52513 5.97487C3.86875 5.3185 3.5 4.42826 3.5 3.5Z" stroke="#8F3C1E" stroke-width="1.25" stroke-linecap="round" stroke-linejoin="round"></path>
</g>
<defs>
<clipPath id="clip0_1_270">
<rect width="14" height="14" fill="white"></rect>
</clipPath>
</defs>
</svg>