<svg width="113" height="24" viewBox="0 0 113 24" fill="none" xmlns="http://www.w3.org/2000/svg">
<g clip-path="url(#clip0_1_348)">
<path d="M12.0441 0.00292969C5.39862 0.00292969 3.05176e-05 5.38044 3.05176e-05 11.9999C3.05176e-05 18.6194 5.39862 23.9969 12.0441 23.9969C18.6895 23.9969 24.0881 18.6194 24.0881 11.9999C24.0881 5.38044 18.6895 0.00292969 12.0441 0.00292969ZM12.0441 22.7946C6.06184 22.7946 1.20709 17.9456 1.20709 11.9999C1.20709 6.05428 6.06184 1.20527 12.0441 1.20527C18.0263 1.20527 22.881 6.05428 22.881 11.9999C22.881 17.9456 18.0263 22.7946 12.0441 22.7946Z" fill="black"></path>
<path d="M16.3421 4.31045C16.3023 4.28403 16.2493 4.27081 16.1962 4.27081C16.037 4.27081 15.9177 4.38973 15.9177 4.54828V8.30064C15.9177 8.43277 15.8115 8.53847 15.6789 8.53847H8.38351C8.25087 8.53847 8.15802 8.43277 8.14475 8.30064V4.54828C8.14475 4.49543 8.13149 4.45579 8.10496 4.40294C8.02537 4.27081 7.85294 4.23118 7.72029 4.31045C5.02763 5.96202 3.39612 8.82914 3.39612 12.0002C3.39612 15.1712 5.02763 18.0383 7.74682 19.6899C7.78662 19.7163 7.83967 19.7295 7.89273 19.7295C8.0519 19.7295 8.17128 19.6106 8.17128 19.452V15.6997C8.17128 15.5675 8.2774 15.4751 8.41004 15.4618H15.7054C15.8381 15.4618 15.9442 15.5675 15.9442 15.6997V19.452C15.9442 19.5049 15.9575 19.5445 15.984 19.5974C16.0636 19.7295 16.236 19.7691 16.3686 19.6899C19.0878 18.0383 20.7194 15.1712 20.7194 12.0002C20.7194 8.82914 19.0613 5.96202 16.3421 4.31045ZM6.76526 16.7038L6.80505 17.1531L6.51324 16.7963C4.27156 13.982 4.27156 10.0051 6.51324 7.19079L6.76526 6.87369L6.80505 6.83405L6.76526 7.29649C6.72547 7.66644 6.7122 8.0496 6.7122 8.43277V15.5543C6.7122 15.9375 6.73873 16.3207 6.76526 16.7038ZM15.9177 13.7971C15.9177 13.9292 15.8115 14.0349 15.6789 14.0349H8.38351C8.25087 14.0349 8.15802 13.9292 8.14475 13.7971V10.2032C8.14475 10.0711 8.25087 9.96542 8.38351 9.96542H15.6789C15.8115 9.96542 15.9177 10.0711 15.9177 10.2032V13.7971ZM17.5624 16.7963L17.2706 17.1531L17.3104 16.7038C17.3502 16.3339 17.3635 15.9507 17.3635 15.5675V8.43277C17.3635 8.0496 17.3502 7.66644 17.3104 7.29649L17.2972 7.0983L17.2839 6.8869V6.83405L17.5624 7.19079C18.6501 8.53847 19.247 10.2561 19.247 11.9869C19.247 13.7178 18.6501 15.4486 17.5624 16.7963Z" fill="black"></path>
<path d="M42.2609 11.7886C42.1945 11.7622 42.115 11.7358 42.115 11.6565C42.115 11.6036 42.1415 11.564 42.1945 11.5376C42.2874 11.4979 44.5821 10.6788 44.5821 7.98339C44.5821 4.98414 42.5527 3.20045 39.1305 3.20045H30.8403V20.826H39.8865C42.5261 20.826 45.3647 18.963 45.3647 15.9638C45.3647 13.0966 43.1894 12.0925 42.2609 11.7886ZM35.0185 6.80747C35.0185 6.74141 35.0716 6.68856 35.1379 6.68856H38.4275C39.5151 6.68856 40.2579 7.41525 40.2579 8.49868C40.2579 9.34429 39.5947 10.256 38.3479 10.256H35.1379C35.0716 10.256 35.0185 10.2031 35.0185 10.137V6.80747ZM38.4275 17.3511H35.1379C35.0716 17.3511 35.0185 17.2982 35.0185 17.2322V13.7176C35.0185 13.6516 35.0716 13.5987 35.1379 13.5987H38.3479C39.9263 13.5987 40.8283 14.2726 40.8283 15.4617C40.8283 16.6905 39.9927 17.3511 38.4275 17.3511ZM73.3657 10.2163L72.7291 10.0842C71.2965 9.7803 69.9038 9.39713 69.9038 8.16837C69.9038 6.9396 71.0578 6.38467 72.1985 6.38467C73.5382 6.38467 74.8646 6.97924 75.8727 8.00982L78.4991 5.42016C77.3716 4.17818 75.3687 2.75122 72.1322 2.75122C68.2324 2.75122 65.6061 4.95772 65.6061 8.24764C65.6061 11.7225 68.3518 13.0306 70.6598 13.5195L71.2833 13.6516C73.5249 14.1272 74.5861 14.484 74.5861 15.7524C74.5861 16.8887 73.5647 17.6418 72.0526 17.6418C70.2752 17.6418 68.6967 16.8622 67.5029 15.3956L64.8102 18.0249C66.2428 19.7161 68.1396 21.2488 72.1056 21.2488C75.488 21.2488 78.9235 19.2933 78.9235 15.541C78.9103 11.6961 76.2839 10.8241 73.3657 10.2163ZM108.317 3.20045V9.64817C108.317 9.71424 108.264 9.76709 108.198 9.76709H102.76C102.693 9.76709 102.64 9.71424 102.64 9.64817V3.20045H98.1833V20.826H102.64V13.9026C102.64 13.8366 102.693 13.7837 102.76 13.7837H108.198C108.264 13.7837 108.317 13.8366 108.317 13.9026V20.826H112.801V3.20045H108.317ZM89.2166 17.219C87.2137 17.219 85.0516 15.5542 85.0516 11.8943C85.0516 8.55153 87.0811 6.80747 89.084 6.80747C90.5431 6.80747 91.5644 7.41525 92.3736 8.76293L95.7958 6.50359C94.0449 3.94035 91.9624 2.77765 89.0575 2.77765C83.3671 2.77765 80.8203 7.3624 80.8203 11.8943C80.8203 17.4039 84.1895 21.2488 89.0044 21.2488C92.5858 21.2488 94.2173 19.9408 95.9284 17.5229L92.4797 15.2107C91.7104 16.4526 90.8747 17.219 89.2166 17.219ZM55.3793 2.75122C50.5113 2.75122 47.2483 6.46395 47.2483 12C47.2483 17.5361 50.5113 21.2488 55.3793 21.2488C60.2473 21.2488 63.5103 17.5361 63.5103 12C63.5103 6.46395 60.2473 2.75122 55.3793 2.75122ZM55.3793 17.219C52.9917 17.219 51.4531 15.171 51.4531 12C51.4531 8.84221 52.9917 6.80747 55.3793 6.80747C57.7801 6.80747 59.3321 8.84221 59.3321 12C59.3321 15.171 57.7801 17.219 55.3793 17.219Z" fill="#F80000"></path>
</g>
<defs>
<clipPath id="clip0_1_348">
<rect width="112.8" height="24" fill="white"></rect>
</clipPath>
</defs>
</svg>