<svg width="151" height="32" viewBox="0 0 151 32" fill="none" xmlns="http://www.w3.org/2000/svg">
<g clip-path="url(#clip0_601_5098)">
<path d="M16.0587 0.00415039C7.19812 0.00415039 0 7.17416 0 16.0001C0 24.8261 7.19812 31.9961 16.0587 31.9961C24.9193 31.9961 32.1174 24.8261 32.1174 16.0001C32.1174 7.17416 24.9193 0.00415039 16.0587 0.00415039ZM16.0587 30.393C8.08241 30.393 1.60941 23.9277 1.60941 16.0001C1.60941 8.07262 8.08241 1.60727 16.0587 1.60727C24.035 1.60727 30.508 8.07262 30.508 16.0001C30.508 23.9277 24.035 30.393 16.0587 30.393Z" fill="black"></path>
<path d="M21.7887 5.74698C21.7356 5.71175 21.6649 5.69413 21.5941 5.69413C21.3819 5.69413 21.2227 5.85268 21.2227 6.06408V11.0672C21.2227 11.2434 21.0812 11.3843 20.9044 11.3843H11.1772C11.0003 11.3843 10.8765 11.2434 10.8589 11.0672V6.06408C10.8589 5.99362 10.8412 5.94077 10.8058 5.8703C10.6997 5.69413 10.4698 5.64128 10.2929 5.74698C6.7027 7.94907 4.52734 11.7719 4.52734 15.9999C4.52734 20.2279 6.7027 24.0508 10.3283 26.2529C10.3813 26.2881 10.4521 26.3057 10.5228 26.3057C10.7351 26.3057 10.8942 26.1472 10.8942 25.9358V20.9326C10.8942 20.7564 11.0357 20.6331 11.2126 20.6155H20.9398C21.1166 20.6155 21.2581 20.7564 21.2581 20.9326V25.9358C21.2581 26.0062 21.2758 26.0591 21.3112 26.1295C21.4173 26.3057 21.6472 26.3586 21.8241 26.2529C25.4496 24.0508 27.625 20.2279 27.625 15.9999C27.625 11.7719 25.4143 7.94907 21.7887 5.74698ZM9.01954 22.2715L9.07259 22.8705L8.68351 22.3948C5.69461 18.6424 5.69461 13.3398 8.68351 9.58743L9.01954 9.16463L9.07259 9.11178L9.01954 9.72837C8.96648 10.2216 8.94879 10.7325 8.94879 11.2434V20.7388C8.94879 21.2497 8.98416 21.7606 9.01954 22.2715ZM21.2227 18.3958C21.2227 18.572 21.0812 18.7129 20.9044 18.7129H11.1772C11.0003 18.7129 10.8765 18.572 10.8589 18.3958V13.604C10.8589 13.4279 11.0003 13.2869 11.1772 13.2869H20.9044C21.0812 13.2869 21.2227 13.4279 21.2227 13.604V18.3958ZM23.4158 22.3948L23.0267 22.8705L23.0797 22.2715C23.1328 21.7782 23.1505 21.2673 23.1505 20.7564V11.2434C23.1505 10.7325 23.1328 10.2216 23.0797 9.72837L23.0621 9.46411L23.0444 9.18225V9.11178L23.4158 9.58743C24.866 11.3843 25.6619 13.6745 25.6619 15.9823C25.6619 18.2901 24.866 20.5979 23.4158 22.3948Z" fill="black"></path>
<path d="M56.3447 15.7183C56.2562 15.6831 56.1501 15.6478 56.1501 15.5421C56.1501 15.4717 56.1855 15.4188 56.2562 15.3836C56.38 15.3307 59.4397 14.2385 59.4397 10.6447C59.4397 6.64569 56.7337 4.26743 52.1708 4.26743H41.1172V27.7682H53.1789C56.6984 27.7682 60.4831 25.2842 60.4831 21.2852C60.4831 17.4624 57.5827 16.1235 56.3447 15.7183ZM46.6882 9.0768C46.6882 8.98871 46.759 8.91824 46.8474 8.91824H51.2335C52.6837 8.91824 53.6741 9.88717 53.6741 11.3317C53.6741 12.4592 52.7898 13.6748 51.1273 13.6748H46.8474C46.759 13.6748 46.6882 13.6043 46.6882 13.5162V9.0768ZM51.2335 23.135H46.8474C46.759 23.135 46.6882 23.0645 46.6882 22.9764V18.2903C46.6882 18.2023 46.759 18.1318 46.8474 18.1318H51.1273C53.232 18.1318 54.4346 19.0303 54.4346 20.6158C54.4346 22.2541 53.3204 23.135 51.2335 23.135ZM97.8178 13.6219L96.9689 13.4457C95.0589 13.0406 93.2019 12.5297 93.2019 10.8913C93.2019 9.25296 94.7405 8.51306 96.2615 8.51306C98.0478 8.51306 99.8163 9.30581 101.16 10.6799L104.662 7.22704C103.159 5.57106 100.488 3.66846 96.1731 3.66846C90.9734 3.66846 87.4717 6.61045 87.4717 10.997C87.4717 15.6302 91.1326 17.3743 94.2099 18.0261L95.0412 18.2023C98.0301 18.8365 99.4449 19.3121 99.4449 21.0033C99.4449 22.5184 98.0831 23.5225 96.067 23.5225C93.6971 23.5225 91.5924 22.4831 90.0007 20.5277L86.4105 24.0334C88.3206 26.2883 90.8496 28.3319 96.1377 28.3319C100.648 28.3319 105.228 25.7246 105.228 20.7215C105.211 15.595 101.709 14.4323 97.8178 13.6219ZM144.42 4.26743V12.8644C144.42 12.9525 144.349 13.0229 144.261 13.0229H137.01C136.921 13.0229 136.85 12.9525 136.85 12.8644V4.26743H130.908V27.7682H136.85V18.537C136.85 18.4489 136.921 18.3784 137.01 18.3784H144.261C144.349 18.3784 144.42 18.4489 144.42 18.537V27.7682H150.398V4.26743H144.42ZM118.952 22.9588C116.282 22.9588 113.399 20.7391 113.399 15.8592C113.399 11.4022 116.105 9.0768 118.776 9.0768C120.721 9.0768 122.083 9.88717 123.162 11.6841L127.725 8.67161C125.39 5.25396 122.613 3.70369 118.74 3.70369C111.153 3.70369 107.757 9.8167 107.757 15.8592C107.757 23.2054 112.249 28.3319 118.669 28.3319C123.445 28.3319 125.62 26.5878 127.901 23.364L123.303 20.281C122.277 21.937 121.163 22.9588 118.952 22.9588ZM73.8359 3.66846C67.3452 3.66846 62.9945 8.61876 62.9945 16.0002C62.9945 23.3816 67.3452 28.3319 73.8359 28.3319C80.3266 28.3319 84.6773 23.3816 84.6773 16.0002C84.6773 8.61876 80.3266 3.66846 73.8359 3.66846ZM73.8359 22.9588C70.6525 22.9588 68.6009 20.2282 68.6009 16.0002C68.6009 11.7898 70.6525 9.0768 73.8359 9.0768C77.037 9.0768 79.1063 11.7898 79.1063 16.0002C79.1063 20.2282 77.037 22.9588 73.8359 22.9588Z" fill="#F80000"></path>
</g>
<defs>
<clipPath id="clip0_601_5098">
<rect width="150.4" height="32" fill="white"></rect>
</clipPath>
</defs>
</svg>