<svg width="32" height="32" viewBox="0 0 32 32" fill="none" xmlns="http://www.w3.org/2000/svg">
<g clip-path="url(#clip0_1_532)">
<path d="M31.24 1.53003H29.71V19.81H31.24V1.53003Z" fill="#5C2435"></path>
<path d="M2.28001 30.48V28.96H0.76001V32H31.24V28.96H29.71V30.48H2.28001Z" fill="#5C2435"></path>
<path d="M29.71 27.4299H28.19V28.9599H29.71V27.4299Z" fill="#5C2435"></path>
<path d="M28.19 25.9099H26.67V27.4299H28.19V25.9099Z" fill="#5C2435"></path>
<path d="M6.86 22.8601V24.3801H25.14V22.8601H20.57V21.3401H29.71V19.8101H2.28V21.3401H11.43V22.8601H6.86ZM12.95 21.3401H19.05V22.8601H12.95V21.3401Z" fill="#5C2435"></path>
<path d="M26.67 24.3799H25.14V25.9099H26.67V24.3799Z" fill="#5C2435"></path>
<path d="M28.19 3.05005H3.81V18.29H28.19V3.05005ZM26.67 16.76H5.33V4.57005H26.67V16.76Z" fill="#5C2435"></path>
<path d="M25.14 27.4299H23.62V28.9599H25.14V27.4299Z" fill="#5C2435"></path>
<path d="M23.62 25.9099H22.09V27.4299H23.62V25.9099Z" fill="#5C2435"></path>
<path d="M19.05 10.6701H20.57V12.1901H22.09V10.6701H23.62V9.1501H25.14V7.6201H23.62V6.1001H22.09V7.6201H20.57V6.1001H19.05V7.6201H17.52V9.1501H19.05V10.6701Z" fill="#5C2435"></path>
<path d="M20.57 27.4299H19.05V28.9599H20.57V27.4299Z" fill="#5C2435"></path>
<path d="M19.05 25.9099H17.52V27.4299H19.05V25.9099Z" fill="#5C2435"></path>
<path d="M16 27.4299H14.47V28.9599H16V27.4299Z" fill="#5C2435"></path>
<path d="M14.47 25.9099H12.95V27.4299H14.47V25.9099Z" fill="#5C2435"></path>
<path d="M12.95 27.4299H11.43V28.9599H12.95V27.4299Z" fill="#5C2435"></path>
<path d="M9.9 25.9099H8.38V27.4299H9.9V25.9099Z" fill="#5C2435"></path>
<path d="M8.38002 27.4299H6.86002V28.9599H8.38002V27.4299Z" fill="#5C2435"></path>
<path d="M6.86002 24.3799H5.33002V25.9099H6.86002V24.3799Z" fill="#5C2435"></path>
<path d="M5.33 25.9099H3.81V27.4299H5.33V25.9099Z" fill="#5C2435"></path>
<path d="M29.71 0H2.28V1.53H29.71V0Z" fill="#5C2435"></path>
<path d="M3.81 27.4299H2.28V28.9599H3.81V27.4299Z" fill="#5C2435"></path>
<path d="M2.28001 1.53003H0.76001V19.81H2.28001V1.53003Z" fill="#5C2435"></path>
</g>
<defs>
<clipPath id="clip0_1_532">
<rect width="32" height="32" fill="white"></rect>
</clipPath>
</defs>
</svg>