<svg width="303" height="32" viewBox="0 0 303 32" fill="none" xmlns="http://www.w3.org/2000/svg">
<path fill-rule="evenodd" clip-rule="evenodd" d="M16.0419 0C13.9502 1.59684e-07 12.1263 1.16454 10.8557 2.90703C10.7785 3.01299 10.7028 3.12154 10.6294 3.23203C10.5524 3.21646 10.4758 3.20022 10.399 3.18672C8.27122 2.81223 6.15938 3.2295 4.69822 4.68672C3.23737 6.14407 2.81881 8.25048 3.19429 10.3726C3.20783 10.4492 3.22489 10.5256 3.2405 10.6023C3.12977 10.6755 3.02084 10.7503 2.91465 10.8274C1.16764 12.0946 9.10749e-05 13.9138 0 16C9.10845e-05 18.0862 1.16764 19.9054 2.91465 21.1726C3.02081 21.2497 3.12981 21.3245 3.2405 21.3977C3.22483 21.4746 3.20787 21.5514 3.19429 21.6282C2.81894 23.7503 3.23794 25.8568 4.69901 27.3141C6.16006 28.771 8.27155 29.1884 10.399 28.8141C10.4759 28.8006 10.5523 28.7835 10.6294 28.768C10.7029 28.8785 10.7784 28.987 10.8557 29.093C12.1263 30.8354 13.9502 32 16.0419 32C18.1336 32 19.9575 30.8354 21.2281 29.093C21.3055 28.9868 21.3817 28.8786 21.4553 28.768C21.5321 28.7835 21.6083 28.8006 21.6849 28.8141C23.8125 29.1884 25.9238 28.7704 27.3849 27.3133C28.8457 25.8561 29.2641 23.7502 28.8888 21.6282C28.8753 21.5517 28.859 21.4751 28.8434 21.3984C28.9542 21.3252 29.0629 21.2498 29.1692 21.1726C30.9163 19.9054 32.0838 18.0862 32.0839 16C32.0838 13.9138 30.9163 12.0946 29.1692 10.8274C29.0628 10.7501 28.9536 10.675 28.8426 10.6016C28.8582 10.5249 28.8744 10.4483 28.888 10.3718C29.2635 8.24968 28.8458 6.14327 27.3849 4.68594C25.9237 3.22879 23.8119 2.81221 21.6841 3.18672C21.6078 3.20014 21.5318 3.21657 21.4553 3.23203C21.3818 3.12142 21.3055 3.0131 21.2281 2.90703C19.9575 1.16454 18.1336 2.83868e-07 16.0419 0ZM16.0419 25.9484C17.2169 26.9946 18.5132 27.7841 19.8253 28.289C18.787 29.6445 17.4469 30.4 16.0419 30.4C14.637 30.4 13.2968 29.6445 12.2586 28.289C13.5707 27.7841 14.8671 26.9946 16.0419 25.9484ZM27.3559 22.2062C27.5762 23.8454 27.1834 25.2516 26.2506 26.182C25.3179 27.1122 23.9085 27.5032 22.2653 27.2836C22.8084 26.0566 23.148 24.6591 23.2365 23.175C24.7246 23.0866 26.1257 22.7481 27.3559 22.2062ZM4.72877 22.2062C5.95903 22.748 7.35996 23.0866 8.84809 23.175C8.93672 24.6592 9.27625 26.0566 9.81943 27.2836C8.17602 27.5034 6.76619 27.113 5.83322 26.1828C4.90024 25.2522 4.50834 23.8457 4.72877 22.2062ZM21.2415 19.3961C21.4371 20.0767 21.5702 20.8058 21.6261 21.5695C21.1467 21.5346 20.6812 21.469 20.2326 21.3774C20.0384 21.8776 19.8057 22.374 19.537 22.8617C20.2076 23.0201 20.9082 23.1261 21.63 23.1718C21.5363 24.5525 21.1941 25.8218 20.6759 26.8977C19.4922 26.4849 18.2846 25.7866 17.1762 24.8141C17.7244 24.1968 18.2006 23.5457 18.6026 22.8774C18.9333 22.3273 19.2146 21.7654 19.4415 21.2H19.4994C19.4822 21.1952 19.4649 21.1908 19.4477 21.1859C19.6276 20.735 19.7722 20.2813 19.8833 19.8305C20.3351 19.7197 20.7895 19.5756 21.2415 19.3961ZM20.6759 5.10156C21.1943 6.17746 21.5362 7.44724 21.63 8.82816C20.6422 8.89072 19.6939 9.06456 18.8085 9.3344C18.2081 9.51736 17.6371 9.74496 17.1026 10.0117C16.7506 10.1876 16.4147 10.3803 16.0968 10.589C16.2194 13.4954 18.5537 15.8234 21.4678 15.9453C21.7027 15.5898 21.918 15.212 22.1109 14.8141C22.6676 15.147 23.2152 15.543 23.7409 16C23.4301 16.2702 23.1098 16.5169 22.7861 16.7438C23.0247 17.2242 23.2332 17.7304 23.4081 18.2578C23.9132 17.9246 24.4061 17.5486 24.8791 17.1305C25.8543 18.2359 26.5549 19.4406 26.9689 20.6211C25.8903 21.1382 24.6178 21.4791 23.2334 21.5726C23.1802 20.7391 23.0467 19.9334 22.8433 19.1703C22.6452 18.4274 22.3797 17.725 22.0561 17.0766C21.8774 16.7186 21.681 16.3767 21.4678 16.0539C18.5539 16.1758 16.2198 18.5041 16.0968 21.4102C16.4533 21.6444 16.8318 21.8598 17.231 22.0523C16.8971 22.6078 16.5003 23.1543 16.0419 23.6789C15.7708 23.3686 15.5238 23.0487 15.2962 22.7258C14.8144 22.9638 14.3071 23.1716 13.7782 23.3461C14.1125 23.85 14.4892 24.3421 14.9085 24.8141C13.8002 25.7866 12.5922 26.4846 11.4087 26.8977C10.8905 25.8218 10.5484 24.5526 10.4547 23.1718C11.4535 23.1085 12.4121 22.9314 13.3059 22.6562C13.8824 22.4789 14.4314 22.2603 14.9469 22.0054C15.3117 21.825 15.6594 21.6259 15.9879 21.4102C15.8649 18.5046 13.5307 16.1766 10.6176 16.0539C10.3826 16.4096 10.1668 16.7877 9.97376 17.1859C9.41662 16.853 8.86831 16.4574 8.34213 16C8.65358 15.7293 8.97426 15.482 9.29855 15.2547C9.06009 14.7743 8.85138 14.2686 8.6766 13.7414C8.17128 14.0746 7.678 14.4506 7.20477 14.8687C6.22998 13.7634 5.52974 12.5592 5.11572 11.3789C6.19442 10.8619 7.46685 10.52 8.8513 10.4266C8.91403 11.4119 9.08816 12.3582 9.35887 13.2414C9.53645 13.8212 9.75719 14.373 10.0137 14.8914C10.1967 15.261 10.3983 15.613 10.6176 15.9453C13.531 15.8226 15.8653 13.495 15.9879 10.589C15.6313 10.3546 15.2523 10.1394 14.8529 9.94688C15.1867 9.39144 15.5835 8.84496 16.0419 8.32032C16.3133 8.6308 16.5614 8.95032 16.7892 9.27344C17.2708 9.03568 17.7778 8.82744 18.3064 8.65312C17.9722 8.14904 17.5948 7.65718 17.1754 7.18516C18.284 6.21261 19.4922 5.51443 20.6759 5.10156ZM7.20399 17.1305C7.80653 17.663 8.44095 18.1277 9.09249 18.5218C9.66126 18.8661 10.2428 19.157 10.8283 19.3906V19.4484C10.833 19.4316 10.8376 19.4145 10.8424 19.3977C11.2943 19.577 11.7489 19.7205 12.2006 19.8313C12.3117 20.2818 12.4563 20.7352 12.6362 21.1859C11.9541 21.3809 11.2239 21.5138 10.4586 21.5695C10.4936 21.0912 10.5594 20.6266 10.6513 20.1789C10.1494 19.9851 9.65147 19.7534 9.16227 19.4851C9.00346 20.1539 8.89718 20.8528 8.8513 21.5726C7.46711 21.4792 6.19507 21.1379 5.1165 20.6211C5.53048 19.4408 6.22917 18.2358 7.20399 17.1305ZM28.3632 12.2258C29.7223 13.2613 30.4796 14.5986 30.4797 16C30.4796 17.401 29.7225 18.738 28.364 19.7734C27.8576 18.4646 27.0656 17.1712 26.0164 15.9992C27.0652 14.8274 27.8571 13.5344 28.3632 12.2258ZM3.72066 12.2266C4.22685 13.5351 5.01794 14.8282 6.06664 16C5.01786 17.1718 4.22615 18.4649 3.71989 19.7734C2.3614 18.738 1.60428 17.401 1.60419 16C1.60428 14.5988 2.3618 13.2621 3.72066 12.2266ZM23.2334 10.4266C24.6175 10.5201 25.8897 10.8621 26.9682 11.3789C26.554 12.559 25.8539 13.7635 24.8791 14.8687C24.281 14.3402 23.6519 13.8775 23.0054 13.4851C22.4325 13.1374 21.8457 12.8448 21.2556 12.6094V12.5516C21.2508 12.5686 21.2463 12.5861 21.2415 12.6031C20.7898 12.4238 20.3356 12.2795 19.884 12.1687C19.773 11.7181 19.6276 11.2649 19.4477 10.8141C20.13 10.619 20.8605 10.4862 21.6261 10.4305C21.5911 10.9085 21.526 11.373 21.4342 11.8203C21.9361 12.0142 22.4339 12.2466 22.9232 12.5149C23.082 11.8459 23.1875 11.1466 23.2334 10.4266ZM11.4087 5.10234C12.5919 5.51537 13.7997 6.213 14.9077 7.18516C14.3777 7.78176 13.9146 8.40976 13.5213 9.05472C13.1726 9.62624 12.8785 10.2114 12.6424 10.8H12.5868C12.6029 10.8046 12.6193 10.8087 12.6354 10.8133C12.4554 11.2642 12.311 11.7179 12.1999 12.1687C11.7485 12.2794 11.2947 12.4239 10.8432 12.6031C10.6477 11.9226 10.5144 11.194 10.4586 10.4305C10.9381 10.4654 11.4041 10.5294 11.8528 10.6211C12.0472 10.1208 12.2796 9.6244 12.5484 9.13672C11.8777 8.97848 11.1766 8.87392 10.4547 8.82816C10.5485 7.4474 10.8905 6.17817 11.4087 5.10234ZM22.2644 4.71562C23.908 4.49592 25.3178 4.88753 26.2506 5.81797C27.1832 6.74835 27.576 8.15408 27.3559 9.79296C26.1257 9.2512 24.7246 8.91344 23.2365 8.82496C23.1479 7.34053 22.8078 5.94278 22.2644 4.71562ZM5.83243 5.81797C6.76557 4.88739 8.17618 4.49556 9.82023 4.71562C9.27681 5.94283 8.9368 7.34043 8.84809 8.82496C7.36011 8.91336 5.95894 9.25128 4.72877 9.79296C4.50868 8.15416 4.89995 6.74831 5.83243 5.81797ZM16.0419 1.6C17.4467 1.6 18.787 2.35517 19.8253 3.71016C18.5132 4.21499 17.2169 5.00474 16.0419 6.05078C14.8672 5.00486 13.5705 4.21581 12.2586 3.71094C13.2968 2.35564 14.6371 1.6 16.0419 1.6Z" fill="#6C147C"></path>
<path d="M62.82 8.30857L61.284 9.488C59.4554 7.22057 57.1057 6.08686 54.2348 6.08686C51.8943 6.08686 49.8737 6.90971 48.1731 8.55543C46.4908 10.2011 45.6497 12.2217 45.6497 14.6171C45.6497 16.9943 46.4726 18.9874 48.1183 20.5966C49.7823 22.1874 51.8577 22.9829 54.3446 22.9829C57.124 22.9829 59.4371 21.904 61.284 19.7463L62.82 20.9257C61.8508 22.2057 60.6257 23.184 59.1446 23.8606C57.6634 24.5189 56.0268 24.848 54.2348 24.848C51.108 24.848 48.548 23.8606 46.5548 21.8857C44.5617 19.9109 43.5651 17.4149 43.5651 14.3977C43.5651 12.5326 44.0223 10.8137 44.9366 9.24114C45.8691 7.65029 47.1491 6.40686 48.7766 5.51086C50.4223 4.61486 52.1868 4.16686 54.0703 4.16686C55.9537 4.16686 57.6451 4.52343 59.1446 5.23657C60.644 5.94971 61.8691 6.97371 62.82 8.30857ZM66.7828 4.66057H68.7851V22.4617H76.3553V24.3543H66.7828V4.66057ZM87.5164 3.86514L96.705 24.3543H94.593L91.4936 17.6343H82.9907L79.9187 24.3543H77.7244L87.0227 3.86514H87.5164ZM87.2696 8.22629L83.8958 15.632H90.6158L87.2696 8.22629ZM99.4817 4.66057H101.457V24.3543H99.4817V4.66057ZM105.066 24.3543L107.863 4.66057H108.165L116.174 20.816L124.129 4.66057H124.43L127.255 24.3543H125.308L123.388 10.256L116.421 24.3543H115.927L108.878 10.1463L106.958 24.3543H105.066ZM129.119 20.6789L130.792 19.6914C131.963 21.8491 133.325 22.928 134.879 22.928C135.885 22.928 136.744 22.608 137.457 21.968C138.171 21.328 138.527 20.5326 138.527 19.5817C138.527 18.832 138.225 18.0731 137.622 17.3051C137.019 16.5371 136.013 15.632 134.605 14.5897C133.215 13.5291 132.273 12.7429 131.78 12.2309C131.304 11.7006 130.948 11.1429 130.71 10.5577C130.491 9.95429 130.381 9.35086 130.381 8.74743C130.381 7.46743 130.829 6.38857 131.725 5.51086C132.639 4.61486 133.782 4.16686 135.153 4.16686C136.232 4.16686 137.174 4.44114 137.979 4.98971C138.783 5.52 139.56 6.31543 140.31 7.376L138.719 8.61029C138.207 7.91543 137.677 7.33943 137.128 6.88229C136.58 6.42514 135.903 6.19657 135.099 6.19657C134.312 6.19657 133.663 6.43429 133.151 6.90971C132.657 7.38514 132.411 7.98857 132.411 8.72C132.411 9.45143 132.63 10.0914 133.069 10.64C133.526 11.1703 134.541 12.0206 136.113 13.1909C137.704 14.3611 138.856 15.44 139.569 16.4274C140.301 17.4149 140.667 18.4571 140.667 19.5543C140.667 20.9806 140.109 22.224 138.993 23.2846C137.896 24.3269 136.616 24.848 135.153 24.848C132.575 24.848 130.564 23.4583 129.119 20.6789ZM151.392 4.66057H153.367V24.3543H151.392V4.66057ZM157.882 24.3543V4.66057H158.32L171.404 19.7463V4.66057H173.351V24.3543H172.912L159.911 9.46057V24.3543H157.882ZM176.128 20.6789L177.801 19.6914C178.971 21.8491 180.334 22.928 181.888 22.928C182.894 22.928 183.753 22.608 184.466 21.968C185.179 21.328 185.536 20.5326 185.536 19.5817C185.536 18.832 185.234 18.0731 184.631 17.3051C184.027 16.5371 183.022 15.632 181.614 14.5897C180.224 13.5291 179.282 12.7429 178.789 12.2309C178.313 11.7006 177.957 11.1429 177.719 10.5577C177.499 9.95429 177.39 9.35086 177.39 8.74743C177.39 7.46743 177.838 6.38857 178.734 5.51086C179.648 4.61486 180.791 4.16686 182.162 4.16686C183.241 4.16686 184.183 4.44114 184.987 4.98971C185.792 5.52 186.569 6.31543 187.319 7.376L185.728 8.61029C185.216 7.91543 184.686 7.33943 184.137 6.88229C183.589 6.42514 182.912 6.19657 182.107 6.19657C181.321 6.19657 180.672 6.43429 180.16 6.90971C179.666 7.38514 179.419 7.98857 179.419 8.72C179.419 9.45143 179.639 10.0914 180.078 10.64C180.535 11.1703 181.55 12.0206 183.122 13.1909C184.713 14.3611 185.865 15.44 186.578 16.4274C187.31 17.4149 187.675 18.4571 187.675 19.5543C187.675 20.9806 187.118 22.224 186.002 23.2846C184.905 24.3269 183.625 24.848 182.162 24.848C179.584 24.848 177.573 23.4583 176.128 20.6789ZM191.901 4.66057H193.876V16.5371C193.876 17.7623 193.903 18.6857 193.958 19.3074C194.031 19.9291 194.25 20.5326 194.616 21.1177C195 21.6846 195.53 22.1417 196.207 22.4891C196.884 22.8183 197.606 22.9829 198.374 22.9829C199.16 22.9829 199.846 22.8457 200.431 22.5714C201.016 22.2789 201.51 21.8766 201.912 21.3646C202.314 20.8526 202.589 20.2949 202.735 19.6914C202.9 19.0697 202.982 18.0183 202.982 16.5371V4.66057H204.929V16.5371C204.929 18.5303 204.728 20.0571 204.326 21.1177C203.924 22.1783 203.21 23.0651 202.186 23.7783C201.181 24.4914 199.992 24.848 198.621 24.848C197.524 24.848 196.536 24.6743 195.658 24.3269C194.781 23.9611 194.049 23.4583 193.464 22.8183C192.879 22.1783 192.468 21.4651 192.23 20.6789C192.01 19.8926 191.901 18.512 191.901 16.5371V4.66057ZM209.901 4.66057H213.824C216.018 4.66057 217.517 4.76114 218.322 4.96229C219.127 5.14514 219.812 5.456 220.379 5.89486C220.964 6.33371 221.421 6.90057 221.751 7.59543C222.08 8.29029 222.244 9.05829 222.244 9.89943C222.244 11.5817 221.65 12.9074 220.461 13.8766C219.273 14.8274 217.591 15.2663 215.415 15.1931L222.519 24.3543H220.077L213.001 15.1931H211.876V24.3543H209.901V4.66057ZM211.876 6.58057V13.2731H215.277C216.96 13.2914 218.194 13.0354 218.98 12.5051C219.785 11.9566 220.187 11.0971 220.187 9.92686C220.187 8.75657 219.794 7.90629 219.008 7.376C218.221 6.84572 217.005 6.58057 215.36 6.58057H211.876ZM234.516 3.86514L243.705 24.3543H241.593L238.494 17.6343H229.991L226.919 24.3543H224.724L234.023 3.86514H234.516ZM234.27 8.22629L230.896 15.632H237.616L234.27 8.22629ZM246.783 24.3543V4.66057H247.222L260.306 19.7463V4.66057H262.253V24.3543H261.814L248.813 9.46057V24.3543H246.783ZM285.409 8.30857L283.873 9.488C282.045 7.22057 279.695 6.08686 276.824 6.08686C274.484 6.08686 272.463 6.90971 270.762 8.55543C269.08 10.2011 268.239 12.2217 268.239 14.6171C268.239 16.9943 269.062 18.9874 270.708 20.5966C272.372 22.1874 274.447 22.9829 276.934 22.9829C279.713 22.9829 282.026 21.904 283.873 19.7463L285.409 20.9257C284.44 22.2057 283.215 23.184 281.734 23.8606C280.253 24.5189 278.616 24.848 276.824 24.848C273.697 24.848 271.137 23.8606 269.144 21.8857C267.151 19.9109 266.154 17.4149 266.154 14.3977C266.154 12.5326 266.612 10.8137 267.526 9.24114C268.458 7.65029 269.738 6.40686 271.366 5.51086C273.012 4.61486 274.776 4.16686 276.66 4.16686C278.543 4.16686 280.234 4.52343 281.734 5.23657C283.233 5.94971 284.458 6.97371 285.409 8.30857ZM289.399 4.66057H300.7V6.608H291.374V12.752H300.618V14.672H291.374V22.4069H300.618V24.3543H289.399V4.66057Z" fill="#6C147C"></path>
</svg>