<svg width="32" height="32" viewBox="0 0 32 32" fill="none" xmlns="http://www.w3.org/2000/svg">
<path d="M30.48 7.62505H1.53V3.05505H0V28.9551H1.53V9.14505H30.48V28.9551H32V3.05505H30.48V7.62505Z" fill="#5C2435"></path>
<path d="M30.48 28.955H1.53V30.475H30.48V28.955Z" fill="#5C2435"></path>
<path d="M27.43 19.815H25.91V24.385H27.43V19.815Z" fill="#5C2435"></path>
<path d="M25.91 24.385H24.38V25.905H25.91V24.385Z" fill="#5C2435"></path>
<path d="M25.91 18.285H24.38V19.815H25.91V18.285Z" fill="#5C2435"></path>
<path d="M24.38 25.905H19.81V27.435H24.38V25.905Z" fill="#5C2435"></path>
<path d="M24.38 18.285V16.765H22.86V10.675H4.57V19.815H7.62V18.285H6.1V12.195H21.34V16.765H19.81V18.285H24.38Z" fill="#5C2435"></path>
<path d="M19.81 24.385H18.29V25.905H19.81V24.385Z" fill="#5C2435"></path>
<path d="M19.81 18.285H18.29V19.815H19.81V18.285Z" fill="#5C2435"></path>
<path d="M18.29 19.815H16.76V24.385H18.29V19.815Z" fill="#5C2435"></path>
<path d="M10.67 4.57501H9.14V6.09501H10.67V4.57501Z" fill="#5C2435"></path>
<path d="M6.1 21.335V22.865H4.57V24.385H15.24V19.815H13.72V18.285H12.19V16.765H10.67V18.285H9.14V19.815H7.62V21.335H6.1Z" fill="#5C2435"></path>
<path d="M7.62 4.57501H6.1V6.09501H7.62V4.57501Z" fill="#5C2435"></path>
<path d="M4.57 4.57501H3.05V6.09501H4.57V4.57501Z" fill="#5C2435"></path>
<path d="M30.48 1.52502H1.53V3.05502H30.48V1.52502Z" fill="#5C2435"></path>
</svg>