<svg width="14" height="14" viewBox="0 0 14 14" fill="none" xmlns="http://www.w3.org/2000/svg">
<g clip-path="url(#clip0_1_227)">
<path d="M12.2406 7.30921C12.3047 6.22379 12.0302 5.14525 11.455 4.22254C10.8798 3.29983 10.0323 2.57848 9.02949 2.15811C8.02672 1.73774 6.91817 1.63909 5.85693 1.87578C4.79569 2.11247 3.83412 2.67282 3.10501 3.47945C2.3759 4.28609 1.91523 5.2992 1.78662 6.37888C1.658 7.45856 1.86779 8.55154 2.38701 9.50688C2.90623 10.4622 3.70926 11.2328 4.6852 11.7121C5.66115 12.1915 6.76185 12.356 7.83531 12.183" stroke="#8F3C1E" stroke-width="1.25" stroke-linecap="round" stroke-linejoin="round"></path>
<path d="M7 4.08337V7.00004L8.75 8.75004" stroke="#8F3C1E" stroke-width="1.25" stroke-linecap="round" stroke-linejoin="round"></path>
<path d="M11.0834 9.33337L9.91669 11.0834H12.25L11.0834 12.8334" stroke="#8F3C1E" stroke-width="1.25" stroke-linecap="round" stroke-linejoin="round"></path>
</g>
<defs>
<clipPath id="clip0_1_227">
<rect width="14" height="14" fill="white"></rect>
</clipPath>
</defs>
</svg>