<svg width="14" height="14" viewBox="0 0 14 14" fill="none" xmlns="http://www.w3.org/2000/svg">
<g clip-path="url(#clip0_1_182)">
<path d="M9.33334 9.91667C9.33334 10.2261 9.45625 10.5228 9.67504 10.7416C9.89384 10.9604 10.1906 11.0833 10.5 11.0833C10.8094 11.0833 11.1062 10.9604 11.325 10.7416C11.5438 10.5228 11.6667 10.2261 11.6667 9.91667C11.6667 9.60725 11.5438 9.3105 11.325 9.09171C11.1062 8.87292 10.8094 8.75 10.5 8.75C10.1906 8.75 9.89384 8.87292 9.67504 9.09171C9.45625 9.3105 9.33334 9.60725 9.33334 9.91667Z" stroke="#8F3C1E" stroke-width="1.25" stroke-linecap="round" stroke-linejoin="round"></path>
<path d="M2.91667 9.33329V9.91663C2.91667 10.226 3.03958 10.5228 3.25838 10.7416C3.47717 10.9604 3.77391 11.0833 4.08333 11.0833C4.39275 11.0833 4.6895 10.9604 4.90829 10.7416C5.12708 10.5228 5.25 10.226 5.25 9.91663V6.99996H3.5C3.03587 6.99996 2.59075 7.18433 2.26256 7.51252C1.93437 7.84071 1.75 8.28583 1.75 8.74996V9.33329H7.58333C7.79954 8.70863 8.18822 8.15797 8.70439 7.74503C9.22056 7.33209 9.84311 7.07377 10.5 6.99996V4.08329C10.5 3.77387 10.3771 3.47713 10.1583 3.25833C9.9395 3.03954 9.64275 2.91663 9.33333 2.91663H8.75" stroke="#8F3C1E" stroke-width="1.25" stroke-linecap="round" stroke-linejoin="round"></path>
<path d="M3.5 5.25H5.25" stroke="#8F3C1E" stroke-width="1.25" stroke-linecap="round" stroke-linejoin="round"></path>
</g>
<defs>
<clipPath id="clip0_1_182">
<rect width="14" height="14" fill="white"></rect>
</clipPath>
</defs>
</svg>