<svg width="129" height="32" viewBox="0 0 129 32" fill="none" xmlns="http://www.w3.org/2000/svg">
<g clip-path="url(#clip0_601_4731)">
<path d="M48.9102 24.6518H53.2988V8.65918H48.9102V24.6518Z" fill="#F44322"></path>
<path d="M68.6659 10.1938C69.6728 11.3777 70.1661 13.0733 70.1661 15.2605V24.7317H65.6966V15.2705C65.6966 13.1134 64.6599 12.0398 62.5965 12.0398C61.8015 12.0398 61.0765 12.3509 60.4321 12.983C59.7883 13.6151 59.4859 14.7086 59.5262 16.2638V24.7417H55.168V8.70888H59.5262V10.1336C60.0498 9.61186 60.714 9.19051 61.5196 8.87947C62.3146 8.56843 63.0897 8.41797 63.8246 8.41797C66.0491 8.41797 67.6596 9.00991 68.6659 10.1938Z" fill="#F44322"></path>
<path d="M77.4144 19.0953C77.4144 19.7775 77.5353 20.3394 77.767 20.8009C77.9981 21.2524 78.5416 21.4831 79.4072 21.4831C79.8001 21.4831 80.1725 21.4631 80.5145 21.4229V25.0951C79.81 25.1753 79.1556 25.2154 78.5521 25.2154C77.3035 25.2154 76.2972 25.1151 75.522 24.9044C74.7574 24.7037 74.1532 24.3125 73.7201 23.7205C73.2876 23.1386 73.0763 22.3058 73.0763 21.2122V12.323H71.1133V8.51039H73.0763V4.23633H77.4045V8.52046H80.6155V12.333H77.4045V19.0953H77.4144Z" fill="#F44322"></path>
<path d="M92.8791 13.496C92.0835 12.6532 91.0066 12.2318 89.6576 12.2318C88.2888 12.2318 87.2119 12.6532 86.4268 13.496C85.6417 14.3387 85.2389 15.4323 85.2389 16.7768C85.2389 18.081 85.6417 19.1546 86.4571 20.0074C87.2621 20.8602 88.3291 21.2916 89.6576 21.2916C91.027 21.2916 92.104 20.8903 92.8891 20.0877C93.6741 19.2851 94.0769 18.1814 94.0769 16.7768C94.0769 15.4323 93.6841 14.3387 92.8791 13.496ZM93.9053 23.1879C93.5329 23.6895 92.899 24.141 91.9931 24.5424C91.0871 24.9436 90.1007 25.1443 89.0237 25.1443C87.3631 25.1443 85.9336 24.7731 84.7154 24.0407C83.4977 23.2983 82.5615 22.2949 81.9276 21.0207C81.2831 19.7465 80.9609 18.3319 80.9609 16.7768C80.9609 15.2216 81.2831 13.807 81.9276 12.5328C82.5714 11.2586 83.4977 10.2553 84.7154 9.51283C85.9336 8.77037 87.373 8.40918 89.0237 8.40918C90.131 8.40918 91.1175 8.59984 91.9627 8.98105C92.8085 9.36231 93.4628 9.84394 93.9053 10.4258V8.76036H98.2341V24.7831H93.9053V23.1879Z" fill="#F44322"></path>
<path d="M111.387 13.496C110.591 12.6532 109.514 12.2318 108.165 12.2318C106.797 12.2318 105.72 12.6532 104.935 13.496C104.15 14.3387 103.747 15.4323 103.747 16.7768C103.747 18.081 104.15 19.1546 104.965 20.0074C105.77 20.8602 106.837 21.2916 108.165 21.2916C109.535 21.2916 110.601 20.8903 111.397 20.0877C112.182 19.2851 112.585 18.1814 112.585 16.7768C112.585 15.4323 112.182 14.3387 111.387 13.496ZM112.413 23.1879C112.041 23.6895 111.407 24.141 110.501 24.5424C109.595 24.9436 108.608 25.1443 107.532 25.1443C105.871 25.1443 104.431 24.7731 103.223 24.0407C102.006 23.2983 101.079 22.2949 100.435 21.0207C99.791 19.7465 99.4688 18.3319 99.4688 16.7768C99.4688 15.2216 99.791 13.807 100.435 12.5328C101.079 11.2586 102.006 10.2553 103.223 9.51283C104.441 8.77037 105.881 8.40918 107.532 8.40918C108.639 8.40918 109.625 8.59984 110.471 8.98105C111.316 9.36231 111.971 9.84394 112.413 10.4258V8.76036H116.741V24.7831H112.413V23.1879Z" fill="#F44322"></path>
<path d="M52.7626 6.33961C52.2996 6.80111 51.7259 7.02185 51.0615 7.02185C50.377 7.02185 49.8033 6.7911 49.3202 6.33961C48.837 5.87812 48.6055 5.32628 48.6055 4.66409C48.6055 4.02199 48.8471 3.47016 49.3202 3.01868C49.7933 2.55716 50.377 2.33643 51.0615 2.33643C51.7259 2.33643 52.2896 2.56719 52.7626 3.01868C53.2257 3.48019 53.4672 4.02199 53.4672 4.66409C53.4672 5.32628 53.2357 5.88812 52.7626 6.33961Z" fill="#2A7CB7"></path>
<path d="M41.9478 10.0231C41.4445 9.12011 40.75 8.4278 39.8642 7.95624C38.9785 7.48473 37.9518 7.24392 36.7741 7.24392C35.4656 7.24392 34.318 7.53488 33.3014 8.10675C32.2948 8.67862 31.4996 9.51138 30.936 10.5749C30.3723 11.6484 30.0804 12.8825 30.0804 14.2771C30.0804 15.7218 30.3723 16.976 30.9461 18.0395C31.5198 19.113 32.325 19.9357 33.3618 20.5076C34.3885 21.0795 35.5863 21.3705 36.9552 21.3705C38.6362 21.3705 40.0152 20.929 41.0821 20.0561C42.1592 19.1832 42.8537 17.9592 43.1959 16.3941H35.6266V13.0932H47.5644V15.3205C47.5644 17.3573 46.9303 19.3538 45.7023 20.9892C45.6922 20.9992 45.6823 21.0193 45.6722 21.0293C44.7059 22.3035 43.4577 23.3269 41.9378 24.0994C40.4179 24.872 38.7067 25.2532 36.8143 25.2532C34.6905 25.2532 32.768 24.7817 31.0568 23.8486C29.3457 22.9155 27.9968 21.6112 27.0204 19.9458C26.0441 18.2803 25.5508 16.384 25.5508 14.267C25.5508 12.1501 26.0441 10.2538 27.0204 8.56825C27.9968 6.89273 29.3457 5.58846 31.0568 4.64535C32.768 3.71227 34.6804 3.24072 36.7842 3.24072C39.2603 3.24072 41.4244 3.83268 43.2463 5.01657C44.3536 5.72892 45.2494 6.62184 45.9439 7.68534C45.9439 7.72549 41.9478 10.0231 41.9478 10.0231Z" fill="#F44322"></path>
<path d="M20.1112 10.0322C20.1112 4.49393 15.6119 0.00915527 10.0556 0.00915527C4.49936 0.00915527 0 4.49393 0 10.0322C0 13.0622 1.3488 15.7811 3.48273 17.6172C3.48273 17.6172 3.48273 17.6172 3.47266 17.6272C4.751 18.7208 6.31119 19.5134 8.02234 19.8546C8.03244 19.8546 8.04248 19.8546 8.05252 19.8646C8.11293 19.8746 8.17335 19.8846 8.2337 19.8946C8.27398 19.9047 8.31425 19.9047 8.36457 19.9147C8.39481 19.9147 8.41489 19.9248 8.44512 19.9248C8.50548 19.9348 8.56589 19.9448 8.62631 19.9549H8.63635C8.86785 19.9849 9.0994 20.0151 9.34094 20.0251C9.34094 20.0251 9.61272 20.0552 9.75363 20.0452C9.85432 20.0452 9.95495 20.0452 10.0556 20.0452C10.1764 20.0452 10.2871 20.0452 10.4079 20.0351C12.0788 20.1957 13.3873 21.6003 13.3873 23.3059C13.3873 25.1219 11.9077 26.5967 10.0858 26.5967C8.26394 26.5967 6.78429 25.1219 6.78429 23.3059C6.78429 22.3528 7.19697 21.4899 7.84116 20.898C5.95887 20.5167 4.25778 19.6639 2.84859 18.4699C1.91248 19.8546 1.36894 21.52 1.36894 23.316C1.36894 28.1117 5.27442 31.9945 10.0758 31.9945C14.8771 31.9945 18.7826 28.1117 18.7826 23.316C18.7826 21.1287 17.9672 19.1322 16.6285 17.6071C18.7624 15.7711 20.1112 13.0622 20.1112 10.0322Z" fill="#F44322"></path>
<path d="M18.3785 2.65876C19.5561 2.61862 20.5023 1.1839 20.5023 0H14.8555C16.2043 0.652148 17.4021 1.55512 18.3785 2.65876Z" fill="#F44322"></path>
<path d="M123.783 4.07275C122.852 4.07275 121.943 4.34779 121.169 4.86307C120.396 5.37835 119.793 6.11075 119.437 6.96765C119.08 7.82449 118.987 8.76739 119.169 9.67706C119.35 10.5867 119.798 11.4223 120.456 12.0782C121.114 12.734 121.952 13.1806 122.865 13.3615C123.778 13.5425 124.724 13.4496 125.583 13.0947C126.443 12.7397 127.178 12.1387 127.695 11.3675C128.211 10.5963 128.488 9.68968 128.488 8.76221C128.486 7.51892 127.99 6.32695 127.108 5.44779C126.226 4.56865 125.03 4.07414 123.783 4.07275ZM123.783 12.7973C122.982 12.7973 122.199 12.5607 121.534 12.1173C120.868 11.6739 120.349 11.0437 120.043 10.3064C119.737 9.56907 119.656 8.75773 119.812 7.97501C119.969 7.19229 120.354 6.47328 120.92 5.90897C121.487 5.34463 122.208 4.96032 122.993 4.80463C123.778 4.64893 124.592 4.72884 125.332 5.03425C126.072 5.33966 126.704 5.85684 127.149 6.5204C127.594 7.18397 127.831 7.96413 127.831 8.76221C127.83 9.83206 127.403 10.8577 126.644 11.6142C125.885 12.3706 124.856 12.7962 123.783 12.7973ZM125.424 7.88977C125.424 7.57163 125.297 7.26664 125.071 7.04171C124.846 6.81684 124.539 6.69035 124.221 6.69012H122.47C122.383 6.69012 122.3 6.72456 122.238 6.78595C122.176 6.84733 122.141 6.93053 122.141 7.01728V10.5071C122.141 10.5939 122.176 10.6771 122.238 10.7385C122.3 10.7998 122.383 10.8343 122.47 10.8343C122.557 10.8343 122.641 10.7998 122.702 10.7385C122.764 10.6771 122.798 10.5939 122.798 10.5071V9.08936H124.017L124.802 10.6532C124.829 10.7076 124.871 10.7533 124.923 10.7852C124.975 10.8172 125.035 10.8342 125.096 10.8343C125.146 10.8344 125.197 10.8225 125.242 10.7999C125.32 10.761 125.379 10.6931 125.407 10.6108C125.434 10.5285 125.428 10.4386 125.389 10.361L124.702 8.98819C124.916 8.8948 125.099 8.7412 125.227 8.54618C125.355 8.3511 125.424 8.12296 125.424 7.88977ZM124.221 8.43505H122.798V7.34449H124.221C124.365 7.34449 124.505 7.40192 124.607 7.5042C124.71 7.60643 124.768 7.74513 124.768 7.88977C124.768 8.03435 124.71 8.17306 124.607 8.27534C124.505 8.37757 124.365 8.43505 124.221 8.43505Z" fill="#F44322"></path>
</g>
<defs>
<clipPath id="clip0_601_4731">
<rect width="129" height="32" fill="white"></rect>
</clipPath>
</defs>
</svg>