<svg width="1384" height="328" viewBox="0 0 1384 328" fill="none" xmlns="http://www.w3.org/2000/svg">
<path d="M92 44H44V92H92V44Z" fill="#26000C" stroke="#A33F5D" stroke-width="2"></path>
<path d="M188 44H140V92H188V44Z" fill="#26000C" stroke="#A33F5D" stroke-width="2"></path>
<path d="M92 92H44V140H92V92Z" fill="#26000C" stroke="#A33F5D" stroke-width="2"></path>
<path d="M188 92H140V140H188V92Z" fill="#26000C" stroke="#A33F5D" stroke-width="2"></path>
<path d="M92 140H44V188H92V140Z" fill="#26000C" stroke="#A33F5D" stroke-width="2"></path>
<path d="M140 140H92V188H140V140Z" fill="#26000C" stroke="#A33F5D" stroke-width="2"></path>
<path d="M188 140H140V188H188V140Z" fill="#26000C" stroke="#A33F5D" stroke-width="2"></path>
<path d="M92 188H44V236H92V188Z" fill="#26000C" stroke="#A33F5D" stroke-width="2"></path>
<path d="M188 188H140V236H188V188Z" fill="#26000C" stroke="#A33F5D" stroke-width="2"></path>
<path d="M92 236H44V284H92V236Z" fill="#26000C" stroke="#A33F5D" stroke-width="2"></path>
<path d="M188 236H140V284H188V236Z" fill="#26000C" stroke="#A33F5D" stroke-width="2"></path>
<path d="M284 44H236V92H284V44Z" fill="#26000C" stroke="#A33F5D" stroke-width="2"></path>
<path d="M332 44H284V92H332V44Z" fill="#26000C" stroke="#A33F5D" stroke-width="2"></path>
<path d="M380 44H332V92H380V44Z" fill="#26000C" stroke="#A33F5D" stroke-width="2"></path>
<path d="M284 92H236V140H284V92Z" fill="#26000C" stroke="#A33F5D" stroke-width="2"></path>
<path d="M284 140H236V188H284V140Z" fill="#26000C" stroke="#A33F5D" stroke-width="2"></path>
<path d="M332 140H284V188H332V140Z" fill="#26000C" stroke="#A33F5D" stroke-width="2"></path>
<path d="M380 140H332V188H380V140Z" fill="#26000C" stroke="#A33F5D" stroke-width="2"></path>
<path d="M284 188H236V236H284V188Z" fill="#26000C" stroke="#A33F5D" stroke-width="2"></path>
<path d="M284 236H236V284H284V236Z" fill="#26000C" stroke="#A33F5D" stroke-width="2"></path>
<path d="M332 236H284V284H332V236Z" fill="#26000C" stroke="#A33F5D" stroke-width="2"></path>
<path d="M380 236H332V284H380V236Z" fill="#26000C" stroke="#A33F5D" stroke-width="2"></path>
<path d="M476 44H428V92H476V44Z" fill="#26000C" stroke="#A33F5D" stroke-width="2"></path>
<path d="M668 44H620V92H668V44Z" fill="#26000C" stroke="#A33F5D" stroke-width="2"></path>
<path d="M476 92H428V140H476V92Z" fill="#26000C" stroke="#A33F5D" stroke-width="2"></path>
<path d="M524 92H476V140H524V92Z" fill="#26000C" stroke="#A33F5D" stroke-width="2"></path>
<path d="M620 92H572V140H620V92Z" fill="#26000C" stroke="#A33F5D" stroke-width="2"></path>
<path d="M668 92H620V140H668V92Z" fill="#26000C" stroke="#A33F5D" stroke-width="2"></path>
<path d="M476 140H428V188H476V140Z" fill="#26000C" stroke="#A33F5D" stroke-width="2"></path>
<path d="M572 140H524V188H572V140Z" fill="#26000C" stroke="#A33F5D" stroke-width="2"></path>
<path d="M668 140H620V188H668V140Z" fill="#26000C" stroke="#A33F5D" stroke-width="2"></path>
<path d="M476 188H428V236H476V188Z" fill="#26000C" stroke="#A33F5D" stroke-width="2"></path>
<path d="M668 188H620V236H668V188Z" fill="#26000C" stroke="#A33F5D" stroke-width="2"></path>
<path d="M476 236H428V284H476V236Z" fill="#26000C" stroke="#A33F5D" stroke-width="2"></path>
<path d="M668 236H620V284H668V236Z" fill="#26000C" stroke="#A33F5D" stroke-width="2"></path>
<path d="M764 44H716V92H764V44Z" fill="#26000C" stroke="#A33F5D" stroke-width="2"></path>
<path d="M812 44H764V92H812V44Z" fill="#26000C" stroke="#A33F5D" stroke-width="2"></path>
<path d="M860 44H812V92H860V44Z" fill="#26000C" stroke="#A33F5D" stroke-width="2"></path>
<path d="M764 92H716V140H764V92Z" fill="#26000C" stroke="#A33F5D" stroke-width="2"></path>
<path d="M860 92H812V140H860V92Z" fill="#26000C" stroke="#A33F5D" stroke-width="2"></path>
<path d="M764 140H716V188H764V140Z" fill="#26000C" stroke="#A33F5D" stroke-width="2"></path>
<path d="M812 140H764V188H812V140Z" fill="#26000C" stroke="#A33F5D" stroke-width="2"></path>
<path d="M860 140H812V188H860V140Z" fill="#26000C" stroke="#A33F5D" stroke-width="2"></path>
<path d="M764 188H716V236H764V188Z" fill="#26000C" stroke="#A33F5D" stroke-width="2"></path>
<path d="M860 188H812V236H860V188Z" fill="#26000C" stroke="#A33F5D" stroke-width="2"></path>
<path d="M764 236H716V284H764V236Z" fill="#26000C" stroke="#A33F5D" stroke-width="2"></path>
<path d="M860 236H812V284H860V236Z" fill="#26000C" stroke="#A33F5D" stroke-width="2"></path>
<path d="M956 44H908V92H956V44Z" fill="#26000C" stroke="#A33F5D" stroke-width="2"></path>
<path d="M1100 44H1052V92H1100V44Z" fill="#26000C" stroke="#A33F5D" stroke-width="2"></path>
<path d="M956 92H908V140H956V92Z" fill="#26000C" stroke="#A33F5D" stroke-width="2"></path>
<path d="M1004 92H956V140H1004V92Z" fill="#26000C" stroke="#A33F5D" stroke-width="2"></path>
<path d="M1100 92H1052V140H1100V92Z" fill="#26000C" stroke="#A33F5D" stroke-width="2"></path>
<path d="M956 140H908V188H956V140Z" fill="#26000C" stroke="#A33F5D" stroke-width="2"></path>
<path d="M1052 140H1004V188H1052V140Z" fill="#26000C" stroke="#A33F5D" stroke-width="2"></path>
<path d="M1100 140H1052V188H1100V140Z" fill="#26000C" stroke="#A33F5D" stroke-width="2"></path>
<path d="M956 188H908V236H956V188Z" fill="#26000C" stroke="#A33F5D" stroke-width="2"></path>
<path d="M1100 188H1052V236H1100V188Z" fill="#26000C" stroke="#A33F5D" stroke-width="2"></path>
<path d="M956 236H908V284H956V236Z" fill="#26000C" stroke="#A33F5D" stroke-width="2"></path>
<path d="M1100 236H1052V284H1100V236Z" fill="#26000C" stroke="#A33F5D" stroke-width="2"></path>
<path d="M1196 44H1148V92H1196V44Z" fill="#26000C" stroke="#A33F5D" stroke-width="2"></path>
<path d="M1244 44H1196V92H1244V44Z" fill="#26000C" stroke="#A33F5D" stroke-width="2"></path>
<path d="M1292 44H1244V92H1292V44Z" fill="#26000C" stroke="#A33F5D" stroke-width="2"></path>
<path d="M1340 44H1292V92H1340V44Z" fill="#26000C" stroke="#A33F5D" stroke-width="2"></path>
<path d="M1196 92H1148V140H1196V92Z" fill="#26000C" stroke="#A33F5D" stroke-width="2"></path>
<path d="M1196 140H1148V188H1196V140Z" fill="#26000C" stroke="#A33F5D" stroke-width="2"></path>
<path d="M1292 140H1244V188H1292V140Z" fill="#26000C" stroke="#A33F5D" stroke-width="2"></path>
<path d="M1340 140H1292V188H1340V140Z" fill="#26000C" stroke="#A33F5D" stroke-width="2"></path>
<path d="M1196 188H1148V236H1196V188Z" fill="#26000C" stroke="#A33F5D" stroke-width="2"></path>
<path d="M1340 188H1292V236H1340V188Z" fill="#26000C" stroke="#A33F5D" stroke-width="2"></path>
<path d="M1196 236H1148V284H1196V236Z" fill="#26000C" stroke="#A33F5D" stroke-width="2"></path>
<path d="M1244 236H1196V284H1244V236Z" fill="#26000C" stroke="#A33F5D" stroke-width="2"></path>
<path d="M1292 236H1244V284H1292V236Z" fill="#26000C" stroke="#A33F5D" stroke-width="2"></path>
<path d="M1340 236H1292V284H1340V236Z" fill="#26000C" stroke="#A33F5D" stroke-width="2"></path>
</svg>