<svg width="32" height="32" viewBox="0 0 32 32" fill="none" xmlns="http://www.w3.org/2000/svg">
<g clip-path="url(#clip0_1_117)">
<path d="M29.7135 12.9546H31.2335V19.0446H29.7135V12.9546Z" fill="#5C2435"></path>
<path d="M9.90423 12.9549H11.4242V11.4249H12.9542V9.9049H19.0442V11.4249H20.5742V9.9049H25.1442V11.4249H26.6642V23.6149H28.1942V20.5749H29.7142V19.0449H28.1942V12.9549H29.7142V11.4249H28.1942V5.3349H26.6642V6.8549H25.1442V5.3349H22.0942V3.8049H11.4242V5.3349H9.90423V6.8549H8.38423V9.9049H6.85423V5.3349H5.33423V9.9049H3.81423V11.4249H9.90423V12.9549Z" fill="#5C2435"></path>
<path d="M25.1441 23.6148H26.6641V25.1448H25.1441V23.6148Z" fill="#5C2435"></path>
<path d="M25.1441 3.8049H26.6641V5.3349H25.1441V3.8049Z" fill="#5C2435"></path>
<path d="M23.6128 20.5749H25.1428V22.0949H23.6128V20.5749Z" fill="#5C2435"></path>
<path d="M23.6128 15.995H25.1428V19.045H23.6128V15.995Z" fill="#5C2435"></path>
<path d="M23.6128 2.28493H25.1428V3.80493H23.6128V2.28493Z" fill="#5C2435"></path>
<path d="M11.4233 25.1447V28.1997H8.38333V29.7197H5.33333V31.2397H29.7133V29.7197H26.6633V28.1997H23.6133V26.6697H25.1433V25.1497L11.4233 25.1447ZM22.0933 29.7147H16.0033V28.1997H12.9533V26.6697H22.0983L22.0933 29.7147Z" fill="#5C2435"></path>
<path d="M19.0434 22.0948H23.6134V23.6148H19.0434V22.0948Z" fill="#5C2435"></path>
<path d="M17.5243 20.5749H19.0443V22.0949H17.5243V20.5749Z" fill="#5C2435"></path>
<path d="M16.0035 15.995H17.5235V19.045H16.0035V15.995Z" fill="#5C2435"></path>
<path d="M16.0035 11.4249H19.0435V12.9549H16.0035V11.4249Z" fill="#5C2435"></path>
<path d="M11.4238 12.9547H12.9538V19.0447H11.4238V12.9547Z" fill="#5C2435"></path>
<path d="M9.90277 0.764969H23.6128V2.28497H9.90277V0.764969Z" fill="#5C2435"></path>
<path d="M9.90277 23.6148H11.4228V25.1448H9.90277V23.6148Z" fill="#5C2435"></path>
<path d="M9.90277 19.0451H11.4228V20.5751H9.90277V19.0451Z" fill="#5C2435"></path>
<path d="M3.81423 20.5749V22.0949H8.38423V23.6149H9.90423V20.5749H3.81423Z" fill="#5C2435"></path>
<path d="M8.38541 2.28493H9.90541V3.80493H8.38541V2.28493Z" fill="#5C2435"></path>
<path d="M6.85416 3.8049H8.38416V5.3349H6.85416V3.8049Z" fill="#5C2435"></path>
<path d="M5.33333 12.9546H6.85333V14.4746H5.33333V12.9546Z" fill="#5C2435"></path>
<path d="M3.81423 14.475H5.33423V17.525H3.81423V14.475Z" fill="#5C2435"></path>
<path d="M2.28313 19.045H3.81313V20.575H2.28313V19.045Z" fill="#5C2435"></path>
<path d="M2.28313 11.4249H3.81313V12.9549H2.28313V11.4249Z" fill="#5C2435"></path>
<path d="M0.763832 12.9547H2.28383V19.0447H0.763832V12.9547Z" fill="#5C2435"></path>
</g>
<defs>
<clipPath id="clip0_1_117">
<rect width="32" height="32" fill="white"></rect>
</clipPath>
</defs>
</svg>