<?xml version="1.0"?>
<svg id="Layer_2" data-name="Layer 2" xmlns="http://www.w3.org/2000/svg" viewBox="0 0 60.87 82.07">
  <defs>
    
  </defs>
  <g id="Layer_1-2" data-name="Layer 1">
    <g>
      <path class="cls-1" d="M27.2,76.02c-.09-1.11-.96-2.07-2-2.05-2.62,0-4.03,0-6.65,0-1.13.09-2.25-.98-2.22-2.24v-17.44c0-1.27,1.03-2.3,2.3-2.3,2.96,0,6.22,0,8.52,0,1-.03,1.94.73,1.94,1.6-.01,1.11.02,4.02-.01,5.13-.05.84-.99,1.48-1.92,1.5-1.18,0,.2-.02-.99,0-.94.01-1.73.8-1.7,1.61,0,1.08-.02,2.17,0,3.25.02.84.91,1.54,1.86,1.51,3.54,0,4.52,0,8.06,0,.71.02,1.38-.37,1.69-.92.26-.41.18-.89.19-1.33,0-5.1,0-12,0-17.11.04-.87-.88-1.68-1.88-1.66-4.48,0-10.23,0-15.32,0-1.52,0-2.74-1.23-2.74-2.75V10.45c0-1.18.95-2.21,2.03-2.22,2.68-.01,4.16,0,6.84,0,1.1.03,1.99-1.08,2.02-2.24.01-1.36,0-2.15,0-3.52.06-1.05-.57-2.14-1.5-2.45C16.59,0,12.3.02,3.17.01c-.6.01-1.21-.06-1.81.06C.59.44-.04,1.32,0,2.27c0,1.44,0,2.29,0,3.72,0,1.17.94,2.29,2.03,2.24,2.62-.01,1.45-.02,4.08,0,1.16-.03,2.18,1.17,2.08,2.43v60.86c.08,1.25-.91,2.5-2.09,2.43-2.62,0-1.45,0-4.08,0-1.03,0-1.97.94-2.02,2.07-.02,1.49,0,2.21,0,3.7-.04,1.22.94,2.36,2.06,2.33,9.26.01,13.68,0,22.93,0,1.19.1,2.25-1.09,2.22-2.36,0-1.49.03-2.2-.01-3.68Z"></path>
      <path class="cls-1" d="M60.85,76.03c-.06-1.13-1-2.08-2.02-2.07-2.62,0-1.45,0-4.08,0-1.17.06-2.17-1.18-2.09-2.43V10.66c-.09-1.26.92-2.46,2.08-2.43,2.62-.01,1.45,0,4.08,0,1.1.05,2.03-1.07,2.03-2.24,0-1.43,0-2.29,0-3.72.04-.96-.59-1.83-1.36-2.2-.6-.12-1.21-.05-1.81-.06-9.13.01-13.42,0-22.56.01-.93.31-1.56,1.4-1.5,2.45.01,1.36,0,2.15,0,3.52.03,1.16.92,2.27,2.02,2.24,2.68,0,4.16-.01,6.84,0,1.08,0,2.02,1.04,2.03,2.22v17.95c0,1.44-1.16,2.61-2.61,2.61-2.55,0-6.55,0-8.35,0-1,.03-1.94-.73-1.94-1.6.01-1.11-.02-4,.01-5.11.05-.84.99-1.48,1.92-1.5,1.18,0,.04.02,1.22,0,.94-.01,1.73-.8,1.7-1.61,0-1.08.02-2.17,0-3.25-.02-.84-.91-1.54-1.86-1.51-3.54,0-4.76,0-8.3,0-.71-.02-1.38.37-1.69.92-.26.41-.18.89-.19,1.33,0,5.1,0,11.98,0,17.09-.04.87.88,1.68,1.88,1.66,4.46,0,10.51,0,15.59,0,1.44,0,2.61,1.17,2.61,2.61v31.71c.02,1.26-1.1,2.33-2.22,2.24-2.62-.01-4.03,0-6.65,0-1.04-.02-1.91.94-2,2.05-.04,1.49,0,2.2-.01,3.68-.03,1.28,1.03,2.46,2.22,2.36,9.26,0,13.68,0,22.93,0,1.12.03,2.11-1.11,2.06-2.33,0-1.49,0-2.21,0-3.7Z"></path>
    </g>
  </g>
</svg>