<svg width="24" height="24" viewBox="0 0 24 24" fill="none" xmlns="http://www.w3.org/2000/svg">
<g clip-path="url(#clip0_26_228)">
<path d="M14 3V7C14 7.26522 14.1054 7.51957 14.2929 7.70711C14.4804 7.89464 14.7348 8 15 8H19" stroke="#8F3C1E" stroke-width="1.5" stroke-linecap="round" stroke-linejoin="round"></path>
<path d="M5 8V5C5 4.46957 5.21071 3.96086 5.58579 3.58579C5.96086 3.21071 6.46957 3 7 3H14L19 8V19C19 19.5304 18.7893 20.0391 18.4142 20.4142C18.0391 20.7893 17.5304 21 17 21H12" stroke="#8F3C1E" stroke-width="1.5" stroke-linecap="round" stroke-linejoin="round"></path>
<path d="M3.87868 16.1213C3.31607 15.5587 3 14.7956 3 14C3 13.2044 3.31607 12.4413 3.87868 11.8787C4.44129 11.3161 5.20435 11 6 11C6.79565 11 7.55871 11.3161 8.12132 11.8787C8.68393 12.4413 9 13.2044 9 14C9 14.7956 8.68393 15.5587 8.12132 16.1213C7.55871 16.6839 6.79565 17 6 17C5.20435 17 4.44129 16.6839 3.87868 16.1213Z" stroke="#8F3C1E" stroke-width="1.5" stroke-linecap="round" stroke-linejoin="round"></path>
<path d="M4.5 17L3 22L6 20.5L9 22L7.5 17" stroke="#8F3C1E" stroke-width="1.5" stroke-linecap="round" stroke-linejoin="round"></path>
</g>
<defs>
<clipPath id="clip0_26_228">
<rect width="24" height="24" fill="white"></rect>
</clipPath>
</defs>
</svg>