<svg width="128" height="20" viewBox="0 0 128 20" fill="none" xmlns="http://www.w3.org/2000/svg">
<g clip-path="url(#clip0_1_511)">
<path d="M9.4557 20C3.73772 20 0 15.9622 0 10.0265C0 3.9006 3.71116 0 9.4557 0C15.1457 0 18.9129 3.84604 18.9129 10.0546C18.9129 15.9888 15.1471 20 9.4557 20ZM9.4557 17.2806C13.2495 17.2806 15.4482 14.5613 15.4482 10.056C15.4482 5.5508 13.2495 2.72084 9.4557 2.72084C5.63388 2.72084 3.48981 5.46822 3.48981 10.056C3.49129 14.5333 5.68995 17.2806 9.4557 17.2806Z" fill="#0B335F"></path>
<path d="M28.15 19.4239C28.0954 19.5611 27.9847 19.6437 27.8475 19.6437H24.3562C24.2189 19.6437 24.1083 19.5611 24.0537 19.4239L19.1325 5.68848C19.0779 5.57788 19.1591 5.46875 19.2697 5.46875H22.4039C22.5412 5.46875 22.6518 5.55133 22.6784 5.68848L26.1977 16.8152L29.9369 5.68848C29.9915 5.55133 30.1022 5.46875 30.2394 5.46875H32.9339C33.0431 5.46875 33.1257 5.57935 33.0711 5.68848L28.15 19.4239Z" fill="#0B335F"></path>
<path d="M45.8276 14.7813C45.9382 14.7813 46.0474 14.8919 46.0194 15.001C45.6343 17.7204 43.2984 19.9457 39.5046 19.9457C34.9405 19.9457 32.494 16.896 32.494 12.5825C32.494 8.10531 35.1058 5.13672 39.3939 5.13672C43.7927 5.13672 46.2658 8.10383 46.3484 12.9394C46.3484 13.0485 46.2378 13.1591 46.1286 13.1591H35.7934C35.9307 16.1808 37.1672 17.6098 39.5592 17.6098C41.2901 17.6098 42.4174 16.7589 42.8026 14.9996C42.8306 14.8624 42.9678 14.7798 43.077 14.7798H45.8276V14.7813ZM39.4219 7.44611C37.4431 7.44611 36.2612 8.6539 35.9026 10.9353H42.776C42.6388 9.09336 41.594 7.44611 39.4219 7.44611Z" fill="#0B335F"></path>
<path d="M47.6673 19.6137C47.5581 19.6137 47.4474 19.5031 47.4474 19.394L47.5301 12.4702L47.4474 5.68506C47.4474 5.57446 47.5581 5.46533 47.6673 5.46533H50.527C50.6377 5.46533 50.7469 5.57593 50.7469 5.68506L50.6643 7.93842C51.709 6.23513 53.5786 5.3562 55.5854 5.3562C55.8599 5.3562 56.1078 5.38422 56.3277 5.41224C56.4383 5.43878 56.5475 5.57741 56.5475 5.68654V7.82929C56.5475 7.93989 56.4369 8.021 56.3277 8.021C56.1358 7.99298 55.8879 7.99298 55.6681 7.99298C53.0016 7.99298 50.8576 9.5311 50.7469 12.746L50.7749 19.394C50.7749 19.5031 50.6643 19.6137 50.5551 19.6137H47.6673Z" fill="#0B335F"></path>
<path d="M63.2007 19.946C59.215 19.946 56.7124 18.2707 56.6032 15.0278C56.6032 14.9172 56.7124 14.8081 56.8231 14.8081H59.6002C59.7108 14.8081 59.82 14.9187 59.82 15.0278C59.9027 16.8963 61.1112 17.7472 63.3394 17.7472C65.209 17.7472 66.3363 17.0054 66.3363 15.687C66.3363 12.5562 56.9352 15.3301 56.9352 9.50652C56.9352 6.64853 59.2165 5.13843 62.8185 5.13843C66.3378 5.13843 68.7829 6.59544 69.0028 9.56108C69.0028 9.67168 68.8921 9.78081 68.7829 9.78081H66.1445C66.0353 9.78081 65.9246 9.69823 65.8981 9.56108C65.6782 8.10554 64.6335 7.28118 62.7639 7.28118C61.1422 7.28118 60.0975 7.88434 60.0975 9.25876C60.0975 12.3085 69.4986 9.42393 69.4986 15.4127C69.4956 18.2973 66.8011 19.946 63.2007 19.946Z" fill="#0B335F"></path>
<path d="M83.5696 14.7813C83.6803 14.7813 83.7895 14.8919 83.7615 15.001C83.3763 17.7204 81.0404 19.9457 77.2466 19.9457C72.6826 19.9457 70.236 16.896 70.236 12.5825C70.236 8.10531 72.8478 5.13672 77.136 5.13672C81.5348 5.13672 84.0079 8.10383 84.0905 12.9394C84.0905 13.0485 83.9798 13.1591 83.8706 13.1591H73.5355C73.6727 16.1808 74.9093 17.6098 77.3012 17.6098C79.0321 17.6098 80.1595 16.7589 80.5446 14.9996C80.5727 14.8624 80.7099 14.7798 80.8191 14.7798H83.5696V14.7813ZM77.1655 7.44611C75.1867 7.44611 74.0047 8.6539 73.6462 10.9353H80.5195C80.3808 9.09336 79.3361 7.44611 77.1655 7.44611Z" fill="#0B335F"></path>
<path d="M98.1683 14.7813C98.279 14.7813 98.3882 14.8919 98.3602 15.001C97.975 17.7204 95.6391 19.9457 91.8453 19.9457C87.2813 19.9457 84.8347 16.896 84.8347 12.5825C84.8347 8.10531 87.4465 5.13672 91.7347 5.13672C96.1335 5.13672 98.6066 8.10383 98.6892 12.9394C98.6892 13.0485 98.5785 13.1591 98.4693 13.1591H88.1342C88.2714 16.1808 89.508 17.6098 91.8999 17.6098C93.6308 17.6098 94.7582 16.7589 95.1433 14.9996C95.1714 14.8624 95.3086 14.7798 95.4178 14.7798H98.1683V14.7813ZM91.7627 7.44611C89.7839 7.44611 88.602 8.6539 88.2434 10.9353H95.1168C94.9795 9.09336 93.9348 7.44611 91.7627 7.44611Z" fill="#0B335F"></path>
<path d="M97.2887 19.2584L97.8937 19.0387C98.7451 18.7099 99.021 18.3515 100.506 15.8519L109.302 0.659424H111.308L113.287 16.1262C113.59 18.4606 113.81 18.6818 114.606 19.0387L115.129 19.2584L115.046 19.6153H107.789L107.872 19.2584L108.697 19.0107C109.933 18.6538 110.236 18.3795 110.016 16.1262L109.713 13.1591H103.666L102.648 15.001C101.109 17.8029 100.998 18.6818 102.099 19.0107L103.033 19.2584L102.951 19.6153H97.2326L97.2887 19.2584ZM109.576 12.0339L108.999 6.51107C108.89 5.52301 108.779 4.39634 108.834 3.81972H108.779C108.559 4.39634 108.009 5.38587 107.377 6.51107L104.298 12.0339H109.576Z" fill="#0B335F"></path>
<path d="M116.285 19.2584L117.109 19.0106C118.319 18.6257 118.485 18.4075 118.979 16.1261L121.426 4.58798C121.893 2.28006 121.728 1.97775 120.766 1.70345L119.887 1.42768L119.941 1.0708H127.501L127.418 1.42768L126.593 1.70345C125.383 2.08835 125.219 2.30661 124.724 4.55996L122.277 16.1261C121.809 18.434 121.974 18.7363 122.937 19.0106L123.816 19.2584L123.761 19.6153H116.202L116.285 19.2584Z" fill="#0B335F"></path>
</g>
<defs>
<clipPath id="clip0_1_511">
<rect width="127.5" height="20" fill="white"></rect>
</clipPath>
</defs>
</svg>